<?xml version="1.0" encoding="utf-8"?>
<!-- Generator: Adobe Illustrator 27.5.0, SVG Export Plug-In . SVG Version: 6.00 Build 0)  -->
<svg version="1.1" xmlns="http://www.w3.org/2000/svg" xmlns:xlink="http://www.w3.org/1999/xlink" x="0px" y="0px"
	 viewBox="0 0 500 500" style="enable-background:new 0 0 500 500;" xml:space="preserve">
<g id="BACKGROUND">
	<rect style="fill:#E0FAFF;" width="500" height="500"/>
</g>
<g id="OBJECTS">
	<g>
		<g>
			
				<line style="fill:none;stroke:#5E2B2A;stroke-width:2;stroke-linecap:round;stroke-miterlimit:10;" x1="39.823" y1="368.839" x2="455.663" y2="368.839"/>
			<path style="fill:none;stroke:#5E2B2A;stroke-width:2;stroke-linecap:round;stroke-miterlimit:10;" d="M455.663,356.566
				c-0.872-23.282-14.689-43.82-28.009-62.935c-7.508-10.775-16.332-22.431-29.253-24.778c-10.864-1.974-21.674,3.295-30.986,9.23
				c-19.356,12.337-36.389,28.306-49.948,46.827c-6.595,9.009-14.248,19.689-25.413,19.747c-7.014,0.037-13.34-4.367-20.311-5.141
				c-9.566-1.061-18.354,4.722-26.695,9.524c-8.342,4.802-18.722,8.855-27.282,4.453c-7.721-3.971-10.783-13.156-14.397-21.051
				c-6.355-13.882-16.471-26.021-28.982-34.772c-5.425-3.796-11.485-7.026-18.071-7.712c-6.586-0.686-13.778,1.6-17.601,7.006
				c-3.38,4.781-4.263,11.826-9.541,14.36c-3.673,1.764-8.232,0.43-11.352-2.192c-3.12-2.621-5.111-6.31-7.028-9.905
				c-5.841-10.956-11.683-21.912-17.525-32.869c-4.475-8.392-12.031-18.198-21.153-15.51c-5.67,1.671-8.786,7.604-11.153,13.021
				c-8.718,19.952-15.797,40.621-21.141,61.729"/>
			<path style="fill:none;stroke:#5E2B2A;stroke-width:2;stroke-linecap:round;stroke-miterlimit:10;" d="M126.954,428.635
				c8.732-6.722,20.351-8.433,31.368-8.175c11.017,0.258,21.971,2.244,32.987,1.935c6.661-0.187,13.304-1.213,19.959-0.889
				c6.655,0.324,13.559,2.192,18.282,6.891"/>
			<path style="fill:none;stroke:#5E2B2A;stroke-width:2;stroke-linecap:round;stroke-miterlimit:10;" d="M294.802,430.716
				c11.152-5.689,25.391-4.749,35.698,2.358"/>
			<path style="fill:none;stroke:#5E2B2A;stroke-width:2;stroke-linecap:round;stroke-miterlimit:10;" d="M75.748,416.027
				c7.254-2.479,15.54-1.755,22.254,1.945"/>
			<path style="fill:none;stroke:#5E2B2A;stroke-width:2;stroke-linecap:round;stroke-miterlimit:10;" d="M375.285,421.233
				c6.063-3.673,13.415-4.75,20.489-4.31c7.074,0.44,13.974,2.303,20.815,4.155"/>
			<path style="fill:none;stroke:#5E2B2A;stroke-width:2;stroke-linecap:round;stroke-miterlimit:10;" d="M65.914,394.91
				c8.488-5.401,19.435-6.754,28.982-3.58"/>
			<path style="fill:none;stroke:#5E2B2A;stroke-width:2;stroke-linecap:round;stroke-miterlimit:10;" d="M425.016,392.991
				c10.203-5.643,23.336-5.575,33.48,0.175"/>
		</g>
		<g>
			<g>
				<path style="fill:#FFFFFF;" d="M293.719,165.449c-0.357,0-0.713-0.018-1.068-0.054c-3.915-0.401-7.605-2.639-9.801-5.901
					c-2.051,0.476-4.17,0.717-6.31,0.717c-1.74,0-3.525-0.16-5.308-0.475c-2.936-0.52-4.803-1.693-5.547-3.486
					c-0.48-1.158-0.31-2.617,0.454-3.902c0.505-0.848,1.197-1.505,1.969-1.897c-0.793-2.197-0.475-4.864,0.906-6.982
					c1.395-2.136,3.824-3.745,6.667-4.415c1.118-0.263,2.33-0.396,3.604-0.396c0.82,0,1.67,0.053,2.57,0.161
					c-1.457-5.4-0.459-11.001,2.697-14.625c2.984-3.427,7.548-5.474,12.206-5.474c1.084,0,2.16,0.112,3.198,0.333
					c3.674,0.784,6.884,2.888,8.807,5.772c1.69,2.534,2.323,5.618,1.805,8.446c0.292-0.037,0.602-0.055,0.933-0.055
					c1.053,0,2.049,0.188,2.549,0.299c3.164,0.708,6.906,2.83,7.92,6.664c0.396,1.499,0.285,3.131-0.272,4.585
					c0.325-0.021,0.644-0.032,0.953-0.032c1.538,0,2.863,0.261,3.94,0.775c2.319,1.109,3.857,3.311,3.919,5.607
					c0.074,2.829-2.046,5.558-5.672,7.3c-5.092,2.447-10.734,2.73-14.535,2.73c-2.228,0-4.459-0.108-6.733-0.236
					C300.823,163.76,297.173,165.449,293.719,165.449z"/>
				<path style="fill:#5E2B2A;" d="M296.758,119.72c1.003,0,2.006,0.102,2.989,0.312c3.268,0.697,6.33,2.569,8.184,5.349
					c1.854,2.78,2.388,6.476,1.11,9.563c0.543-0.548,1.487-0.727,2.459-0.727c0.832,0,1.686,0.131,2.33,0.275
					c3.188,0.713,6.337,2.786,7.172,5.944c0.501,1.893,0.073,4.008-1.123,5.558c0.87-0.154,1.822-0.261,2.772-0.261
					c1.237,0,2.47,0.182,3.508,0.678c1.835,0.877,3.297,2.699,3.351,4.731c0.076,2.88-2.507,5.124-5.105,6.372
					c-4.366,2.098-9.21,2.631-14.102,2.631c-2.387,0-4.784-0.127-7.144-0.261c-2.389,2.632-5.902,4.565-9.442,4.565
					c-0.322,0-0.644-0.016-0.966-0.049c-3.858-0.395-7.471-2.71-9.442-6.05c-2.234,0.583-4.497,0.861-6.769,0.861
					c-1.71,0-3.424-0.157-5.135-0.46c-1.92-0.339-4.05-1.084-4.797-2.885c-0.773-1.864,0.88-4.599,2.886-4.808
					c-1.267-2.128-0.996-4.968,0.357-7.043c1.354-2.075,3.647-3.42,6.058-3.987c1.107-0.26,2.238-0.37,3.375-0.37
					c1.34,0,2.685,0.152,4.005,0.388c-1.815-5.003-1.479-11.182,2.016-15.195C288.142,121.595,292.453,119.72,296.758,119.72
					 M296.758,117.72c-4.943,0-9.788,2.175-12.96,5.817c-3.102,3.562-4.262,8.882-3.229,14.161c-0.436-0.027-0.863-0.04-1.283-0.04
					c-1.351,0-2.64,0.142-3.833,0.423c-3.09,0.727-5.742,2.492-7.275,4.841c-1.391,2.131-1.818,4.767-1.246,7.083
					c-0.642,0.467-1.21,1.09-1.652,1.831c-0.926,1.555-1.12,3.348-0.519,4.796c0.884,2.13,3.002,3.505,6.296,4.088
					c1.84,0.326,3.684,0.49,5.483,0.49c1.987,0,3.958-0.201,5.877-0.599c2.392,3.199,6.153,5.371,10.131,5.778
					c0.385,0.039,0.778,0.059,1.17,0.059c3.585,0,7.352-1.673,10.246-4.516c2.133,0.117,4.233,0.213,6.34,0.213
					c3.898,0,9.692-0.293,14.968-2.828c3.991-1.918,6.323-4.993,6.238-8.227c-0.07-2.669-1.832-5.214-4.488-6.483
					c-1.117-0.534-2.454-0.826-3.978-0.868c0.253-1.251,0.224-2.56-0.108-3.814c-1.128-4.268-5.218-6.613-8.669-7.385
					c-0.507-0.113-1.489-0.299-2.558-0.321c0.204-2.722-0.522-5.562-2.114-7.948c-2.067-3.1-5.505-5.358-9.431-6.195
					C299.059,117.839,297.913,117.72,296.758,117.72L296.758,117.72z"/>
			</g>
			<path style="fill:#FFFFFF;stroke:#5E2B2A;stroke-width:2;stroke-linecap:round;stroke-miterlimit:10;" d="M281.12,153.592
				c0,0,0.679,3.636,2.414,5.995"/>
			<path style="fill:#FFFFFF;stroke:#5E2B2A;stroke-width:2;stroke-linecap:round;stroke-miterlimit:10;" d="M303.372,160.663
				c0,0,1.735-3.118,2.112-5.934"/>
			<path style="fill:#FFFFFF;stroke:#5E2B2A;stroke-width:2;stroke-linecap:round;stroke-miterlimit:10;" d="M310.009,133.81
				c0,0-1.81,4.073-5.582,5.506"/>
		</g>
		<g>
			<g>
				<path style="fill:#FFFFFF;" d="M218.898,90.053c-0.255,0-0.51-0.013-0.765-0.039c-2.701-0.276-5.251-1.788-6.819-4.001
					c-1.363,0.3-2.767,0.452-4.183,0.452c-1.211,0-2.453-0.111-3.691-0.33c-2.124-0.376-3.481-1.243-4.035-2.578
					c-0.367-0.884-0.243-1.989,0.331-2.954c0.324-0.545,0.755-0.986,1.24-1.286c-0.465-1.544-0.21-3.356,0.737-4.808
					c0.999-1.53,2.733-2.681,4.758-3.158c0.789-0.186,1.644-0.28,2.541-0.28c0.435,0,0.881,0.021,1.344,0.064
					c-0.856-3.66-0.118-7.402,2.026-9.864c2.103-2.416,5.317-3.857,8.598-3.857c0.765,0,1.524,0.079,2.256,0.235
					c2.596,0.554,4.867,2.043,6.229,4.087c1.123,1.684,1.59,3.71,1.347,5.613c0.087-0.004,0.175-0.006,0.266-0.006
					c0.751,0,1.459,0.133,1.814,0.212c2.257,0.505,4.93,2.029,5.661,4.792c0.248,0.938,0.223,1.949-0.047,2.887
					c0.07-0.002,0.141-0.002,0.21-0.002c1.101,0,2.054,0.189,2.834,0.562c1.694,0.81,2.818,2.426,2.863,4.116
					c0.054,2.065-1.464,4.044-4.063,5.293c-3.545,1.704-7.458,1.901-10.092,1.901c-1.487,0-2.974-0.07-4.487-0.154
					C223.842,88.901,221.305,90.053,218.898,90.053z"/>
				<path style="fill:#5E2B2A;" d="M220.979,58.415c0.687,0,1.374,0.07,2.048,0.213c2.238,0.478,4.336,1.76,5.606,3.664
					c1.27,1.904,1.636,4.436,0.76,6.551c0.372-0.375,1.018-0.498,1.685-0.498c0.57,0,1.155,0.09,1.596,0.188
					c2.183,0.488,4.34,1.908,4.912,4.072c0.343,1.297,0.05,2.746-0.77,3.807c0.596-0.105,1.248-0.179,1.899-0.179
					c0.848,0,1.692,0.124,2.403,0.464c1.257,0.601,2.259,1.848,2.295,3.241c0.052,1.973-1.717,3.51-3.496,4.365
					c-2.99,1.437-6.309,1.802-9.659,1.802c-1.635,0-3.277-0.087-4.893-0.179c-1.637,1.803-4.043,3.127-6.467,3.127
					c-0.221,0-0.441-0.011-0.662-0.034c-2.643-0.271-5.118-1.856-6.468-4.144c-1.53,0.399-3.081,0.589-4.637,0.589
					c-1.171,0-2.345-0.108-3.517-0.315c-1.315-0.233-2.774-0.743-3.286-1.976c-0.53-1.277,0.602-3.151,1.977-3.293
					c-0.868-1.458-0.683-3.403,0.245-4.824c0.927-1.421,2.498-2.343,4.15-2.731c0.758-0.178,1.533-0.253,2.312-0.253
					c0.918,0,1.839,0.104,2.743,0.266c-1.243-3.427-1.013-7.659,1.381-10.409C215.077,59.699,218.03,58.415,220.979,58.415
					 M220.979,56.415c-3.566,0-7.062,1.57-9.352,4.201c-2.098,2.409-2.975,5.912-2.484,9.457c-0.044,0-0.088-0.001-0.131-0.001
					c-0.974,0-1.906,0.103-2.77,0.306c-2.306,0.542-4.212,1.816-5.367,3.585c-0.986,1.512-1.336,3.306-1.03,4.955
					c-0.371,0.327-0.7,0.722-0.968,1.173c-0.735,1.235-0.883,2.674-0.396,3.849c0.693,1.671,2.303,2.74,4.785,3.179
					c1.296,0.229,2.597,0.345,3.865,0.345c1.271,0,2.533-0.117,3.767-0.347c1.749,2.156,4.369,3.609,7.133,3.892
					c0.285,0.029,0.576,0.044,0.866,0.044c2.535,0,5.186-1.137,7.257-3.08c1.377,0.074,2.736,0.132,4.104,0.132
					c2.732,0,6.795-0.207,10.525-1.999c2.964-1.424,4.695-3.749,4.63-6.22c-0.054-2.062-1.401-4.022-3.432-4.993
					c-0.666-0.318-1.429-0.523-2.277-0.61c0.065-0.729,0.006-1.471-0.184-2.189c-0.845-3.196-3.865-4.943-6.409-5.512
					c-0.318-0.071-0.75-0.151-1.238-0.198c0.005-1.802-0.532-3.636-1.576-5.201c-1.506-2.258-4.004-3.902-6.853-4.51
					C222.643,56.501,221.814,56.415,220.979,56.415L220.979,56.415z"/>
			</g>
			<path style="fill:#FFFFFF;stroke:#5E2B2A;stroke-width:2;stroke-linecap:round;stroke-miterlimit:10;" d="M210.268,81.617
				c0,0,0.465,2.491,1.653,4.106"/>
			<path style="fill:#FFFFFF;stroke:#5E2B2A;stroke-width:2;stroke-linecap:round;stroke-miterlimit:10;" d="M225.509,86.46
				c0,0,1.188-2.136,1.447-4.065"/>
			<path style="fill:#FFFFFF;stroke:#5E2B2A;stroke-width:2;stroke-linecap:round;stroke-miterlimit:10;" d="M230.056,68.067
				c0,0-1.24,2.79-3.823,3.772"/>
		</g>
		<g>
			<g>
				<path style="fill:#F9DE8D;" d="M366.457,98.534c-13.247,0-24.024-10.777-24.024-24.024c0-13.247,10.777-24.024,24.024-24.024
					c13.246,0,24.023,10.777,24.023,24.024C390.48,87.757,379.703,98.534,366.457,98.534z"/>
				<path style="fill:#5E2B2A;" d="M366.457,51.486c12.716,0,23.024,10.308,23.024,23.024c0,12.716-10.308,23.024-23.024,23.024
					s-23.024-10.308-23.024-23.024C343.433,61.794,353.741,51.486,366.457,51.486 M366.457,49.486
					c-13.798,0-25.024,11.226-25.024,25.024c0,13.798,11.226,25.024,25.024,25.024c13.798,0,25.024-11.226,25.024-25.024
					C391.481,60.712,380.255,49.486,366.457,49.486L366.457,49.486z"/>
			</g>
			<path style="fill:#5E2B2A;" d="M360.4,70.225l-2.384,2.533c1.172,2.799,2.935,4.493,4.277,4.111
				c1.631-0.465,2.119-3.847,1.08-7.492c-1.039-3.645-3.236-6.262-4.867-5.797c-1.258,0.359-1.878,2.464-1.54,5.234L360.4,70.225z"
				/>
			<path style="fill:#5E2B2A;" d="M352.193,72.27l-2.384,2.533c1.172,2.799,2.935,4.493,4.278,4.111
				c1.631-0.465,2.118-3.847,1.08-7.492c-1.039-3.645-3.236-6.261-4.867-5.797c-1.258,0.358-1.877,2.464-1.54,5.234L352.193,72.27z"
				/>
			<path style="fill:#F9DE8D;stroke:#5E2B2A;stroke-linecap:round;stroke-miterlimit:10;" d="M358.465,76.863
				c-1.798,0.296-3.651,0.257-5.434-0.117c-0.912-0.191-1.824-0.47-2.755-0.424c-0.931,0.046-1.918,0.507-2.259,1.375
				c-0.247,0.628-0.107,1.365,0.258,1.933s0.928,0.984,1.529,1.29c2.287,1.161,5.284,0.72,7.14-1.05"/>
			<path style="fill:none;stroke:#5E2B2A;stroke-linecap:round;stroke-miterlimit:10;" d="M359.237,83.332
				c3.107,0.61,6.447-0.075,9.063-1.858c1.188-0.81,2.251-1.866,2.826-3.184c0.576-1.318,0.606-2.921-0.146-4.147"/>
			<path style="fill:none;stroke:#5E2B2A;stroke-linecap:round;stroke-miterlimit:10;" d="M373.668,70.823
				c-0.499,1.835-2.501,3.125-4.379,2.821c-1.878-0.304-3.37-2.16-3.264-4.059"/>
			<path style="fill:none;stroke:#5E2B2A;stroke-linecap:round;stroke-miterlimit:10;" d="M378.475,41.792
				c0.405,2.652-1.409,5.462-3.992,6.184c-1.216,0.34-2.537,0.251-3.724-0.181c-2.802-1.019-4.718-4.068-4.421-7.035"/>
			<path style="fill:none;stroke:#5E2B2A;stroke-linecap:round;stroke-miterlimit:10;" d="M359.57,40.611
				c1.457,2.086,0.936,5.293-1.107,6.81c-2.043,1.517-5.263,1.089-6.839-0.909"/>
			<path style="fill:none;stroke:#5E2B2A;stroke-linecap:round;stroke-miterlimit:10;" d="M345.822,49.112
				c0.366,0.088,0.733,0.175,1.099,0.262c1.489,1.552,1.677,4.184,0.424,5.932c-1.253,1.748-3.807,2.414-5.754,1.502"/>
			<path style="fill:none;stroke:#5E2B2A;stroke-linecap:round;stroke-miterlimit:10;" d="M337.487,62.276
				c1.87,0.181,3.145,2.237,2.992,4.11c-0.153,1.873-1.385,3.496-2.815,4.715"/>
			<path style="fill:none;stroke:#5E2B2A;stroke-linecap:round;stroke-miterlimit:10;" d="M334.345,77.349
				c2.055-0.19,4.145,1.241,4.71,3.226c0.565,1.985-0.457,4.302-2.305,5.223"/>
			<path style="fill:none;stroke:#5E2B2A;stroke-linecap:round;stroke-miterlimit:10;" d="M339.851,93.96
				c1.059-1.718,3.57-2.335,5.304-1.303c1.734,1.032,2.39,3.533,1.385,5.283"/>
			<path style="fill:none;stroke:#5E2B2A;stroke-linecap:round;stroke-miterlimit:10;" d="M351.506,101.37
				c1.281-1.443,3.603-1.828,5.282-0.875c1.678,0.953,2.538,3.144,1.955,4.984"/>
			<path style="fill:none;stroke:#5E2B2A;stroke-linecap:round;stroke-miterlimit:10;" d="M365.547,106.182
				c-0.391-1.918,1.136-4.002,3.082-4.208c1.947-0.206,3.876,1.512,3.895,3.469"/>
			<path style="fill:none;stroke:#5E2B2A;stroke-linecap:round;stroke-miterlimit:10;" d="M381.762,104.027
				c-1.276-0.709-1.743-2.462-1.219-3.825c0.525-1.362,1.855-2.306,3.276-2.641c1.421-0.335,2.919-0.132,4.322,0.272"/>
			<path style="fill:none;stroke:#5E2B2A;stroke-linecap:round;stroke-miterlimit:10;" d="M392.846,93.597
				c-1.155-0.066-2.145-1.054-2.366-2.189c-0.221-1.136,0.252-2.341,1.077-3.153c0.824-0.812,1.959-1.258,3.106-1.407"/>
			<path style="fill:none;stroke:#5E2B2A;stroke-linecap:round;stroke-miterlimit:10;" d="M398.949,80.974
				c-1.052,0.18-2.184,0.082-3.099-0.465c-0.916-0.547-1.566-1.596-1.458-2.658c0.108-1.062,1.095-2.013,2.157-1.917"/>
			<path style="fill:none;stroke:#5E2B2A;stroke-linecap:round;stroke-miterlimit:10;" d="M399.12,70.216
				c-1.498,1.526-4.308,1.435-5.704-0.185s-1.071-4.413,0.658-5.669"/>
			<path style="fill:none;stroke:#5E2B2A;stroke-linecap:round;stroke-miterlimit:10;" d="M395.689,57.669
				c-0.913,1.903-3.569,2.714-5.39,1.645c-1.821-1.069-2.407-3.783-1.19-5.508"/>
			<path style="fill:none;stroke:#5E2B2A;stroke-linecap:round;stroke-miterlimit:10;" d="M388.142,49.519
				c-0.597,1.535-2.534,2.317-4.103,1.813c-1.569-0.504-2.657-2.094-2.783-3.736c-0.126-1.643,0.615-3.281,1.772-4.453"/>
		</g>
		<g>
			<g>
				<path style="fill:#FFFFFF;" d="M392.418,113.587c-0.356,0-0.711-0.018-1.066-0.054c-3.916-0.401-7.605-2.639-9.802-5.901
					c-2.05,0.476-4.168,0.717-6.308,0.717c-1.741,0-3.527-0.16-5.31-0.475c-2.936-0.519-4.803-1.692-5.547-3.486
					c-0.48-1.159-0.31-2.618,0.455-3.902c0.505-0.847,1.197-1.505,1.969-1.896c-0.794-2.197-0.476-4.864,0.907-6.982
					c1.394-2.136,3.823-3.745,6.666-4.414c1.118-0.263,2.331-0.396,3.604-0.396c0.82,0,1.67,0.053,2.568,0.161
					c-1.457-5.4-0.459-11.001,2.698-14.625c2.984-3.427,7.547-5.474,12.205-5.474c1.084,0,2.16,0.112,3.198,0.334
					c3.673,0.784,6.884,2.888,8.808,5.772c1.69,2.535,2.322,5.618,1.805,8.446c0.291-0.037,0.603-0.055,0.933-0.055
					c1.053,0,2.049,0.188,2.548,0.299c3.165,0.708,6.907,2.83,7.921,6.665c0.396,1.498,0.284,3.13-0.272,4.584
					c0.326-0.021,0.645-0.032,0.954-0.032c1.537,0,2.862,0.261,3.94,0.776c2.32,1.109,3.859,3.311,3.919,5.608
					c0.074,2.828-2.046,5.557-5.672,7.299c-5.092,2.446-10.733,2.729-14.533,2.729c-2.23,0-4.46-0.109-6.734-0.236
					C399.523,111.897,395.873,113.587,392.418,113.587z"/>
				<path style="fill:#5E2B2A;" d="M395.459,67.857c1.003,0,2.006,0.102,2.989,0.312c3.268,0.697,6.33,2.569,8.184,5.349
					c1.854,2.78,2.388,6.476,1.11,9.563c0.543-0.548,1.487-0.727,2.46-0.727c0.832,0,1.686,0.131,2.33,0.275
					c3.188,0.713,6.337,2.786,7.172,5.944c0.501,1.893,0.073,4.008-1.123,5.558c0.87-0.154,1.822-0.261,2.772-0.261
					c1.238,0,2.47,0.182,3.508,0.678c1.835,0.877,3.297,2.698,3.351,4.731c0.076,2.881-2.507,5.124-5.104,6.372
					c-4.366,2.098-9.21,2.631-14.102,2.631c-2.387,0-4.784-0.127-7.144-0.261c-2.389,2.632-5.902,4.565-9.442,4.565
					c-0.322,0-0.644-0.016-0.966-0.049c-3.858-0.395-7.471-2.71-9.442-6.05c-2.234,0.583-4.497,0.86-6.769,0.86
					c-1.71,0-3.424-0.157-5.135-0.46c-1.92-0.34-4.05-1.084-4.797-2.885c-0.773-1.864,0.879-4.6,2.886-4.808
					c-1.267-2.128-0.997-4.968,0.357-7.043c1.354-2.075,3.647-3.42,6.058-3.987c1.107-0.26,2.238-0.37,3.375-0.37
					c1.34,0,2.685,0.152,4.005,0.388c-1.815-5.003-1.479-11.182,2.016-15.195C386.842,69.733,391.154,67.857,395.459,67.857
					 M395.459,65.857c-4.943,0-9.788,2.175-12.96,5.817c-3.102,3.562-4.262,8.882-3.229,14.161c-0.436-0.027-0.863-0.04-1.283-0.04
					c-1.351,0-2.64,0.142-3.833,0.423c-3.09,0.727-5.742,2.492-7.275,4.841c-1.391,2.131-1.818,4.767-1.246,7.083
					c-0.642,0.467-1.21,1.09-1.651,1.831c-0.926,1.555-1.12,3.348-0.519,4.796c0.884,2.13,3.002,3.505,6.296,4.088
					c1.84,0.325,3.684,0.49,5.483,0.49c1.988,0,3.958-0.201,5.877-0.599c2.392,3.199,6.153,5.371,10.131,5.778
					c0.385,0.039,0.778,0.059,1.17,0.059c3.585,0,7.352-1.673,10.246-4.516c2.133,0.117,4.233,0.213,6.34,0.213
					c3.899,0,9.692-0.293,14.968-2.828c3.991-1.918,6.323-4.993,6.238-8.227c-0.07-2.669-1.832-5.214-4.488-6.483
					c-1.117-0.534-2.454-0.826-3.978-0.868c0.253-1.251,0.224-2.56-0.108-3.814c-1.128-4.268-5.218-6.613-8.669-7.385
					c-0.507-0.113-1.489-0.299-2.558-0.321c0.204-2.722-0.522-5.562-2.114-7.948c-2.067-3.1-5.505-5.358-9.431-6.195
					C397.759,65.977,396.613,65.857,395.459,65.857L395.459,65.857z"/>
			</g>
			<path style="fill:#FFFFFF;stroke:#5E2B2A;stroke-width:2;stroke-linecap:round;stroke-miterlimit:10;" d="M379.821,101.73
				c0,0,0.679,3.636,2.414,5.994"/>
			<path style="fill:#FFFFFF;stroke:#5E2B2A;stroke-width:2;stroke-linecap:round;stroke-miterlimit:10;" d="M402.072,108.801
				c0,0,1.735-3.118,2.112-5.934"/>
			<path style="fill:#FFFFFF;stroke:#5E2B2A;stroke-width:2;stroke-linecap:round;stroke-miterlimit:10;" d="M408.71,81.948
				c0,0-1.81,4.073-5.582,5.506"/>
		</g>
	</g>
	<g>
		<g>
			<g>
				<path style="fill:#A5DCE7;" d="M386.937,377.26c0.758-4.975,1.02-10.242,1.26-15.355c-0.026,0.076-0.05,0.153-0.072,0.231
					l-0.799,2.796l-1.09-2.695c-2.355-5.823-3.181-11.841-2.442-17.615l-0.752,1.723l-0.749-2.73
					c-2.117-7.725-2.703-15.421-1.729-22.453c-0.715,0.754-1.35,1.562-1.731,2.399l-0.906,1.988l-0.912-1.985
					c-1.892-4.117-1.559-8.86-0.982-12.958c0.434-3.08,0.914-6.489,0.29-9.604c-0.285,0.695-0.507,1.411-0.579,2.04l-0.401,3.529
					l-1.498-3.221c-2.548-5.476-3.536-11.679-2.848-17.678c-0.258,0.291-0.438,0.614-0.472,0.905l-0.43,3.71l-1.481-3.429
					c-1.866-4.317-1.665-9.047-1.471-13.62c0.063-1.483,0.126-2.986,0.117-4.479l-1.685-1.531c-1.757-1.598-3.089-3.814-3.96-6.59
					c-0.285-0.907-0.508-1.828-0.692-2.752l0.194,2.775l-2.055-2.855c-2.431-3.377-4.607-6.951-6.496-10.664l0.027,1.198
					l-1.807-2.016c-1.893-2.111-3.386-4.515-4.436-7.145c-0.099-0.247-0.194-0.497-0.289-0.747
					c-0.267-0.701-0.518-1.363-0.855-1.967c-0.325-0.582-0.88-1.348-1.674-1.691c-1.054-0.454-2.225-0.675-3.581-0.675
					c-2.544,0-5.25,0.787-7.804,1.593l-0.538,0.174c-1.119,0.365-2.276,0.742-3.496,0.742c-0.499,0-0.979-0.066-1.428-0.197
					c-1.29-0.375-2.43-1.301-3.388-2.751c-2.517-3.808-2.925-8.033-1.092-11.302l0.157-0.281l0.292-0.136
					c9.809-4.579,20.857-6.999,31.952-6.999c9.017,0,17.773,1.546,26.028,4.596l1.858,0.687l-1.655,1.087
					c-0.301,0.198-0.594,0.382-0.879,0.555c7.204,1.169,14.201,5.456,18.541,11.556l1.219,1.713l-1.344-0.087
					c1.362,0.777,2.725,1.544,4.061,2.298c2.504,1.411,5.093,2.871,7.621,4.35c3.228,1.889,6.566,3.843,9.342,6.549
					c3.169,3.091,5.049,6.78,5.293,10.389l0.202,2.994l-0.886-1.028c0.4,0.525,0.83,1.047,1.266,1.578l0.361,0.439
					c4.357,5.331,7.175,12.035,7.936,18.879l0.342,3.076l-0.255-0.281c3.157,5.901,5.69,12.659,7.821,20.802l0.878,3.353
					l-2.412-2.261c2.281,7.165,3.186,14.632,2.692,22.249l-0.226,3.472l-1.652-3.061c-0.289-0.535-0.592-1.046-0.913-1.537
					c-0.285,6.406-3.364,13.214-8.319,18.052l-1.865,1.821l0.169-2.602c0.06-0.934,0.044-1.836-0.022-2.723
					c-4.386,10.557-12.72,19.77-22.894,25.128l-2.616,1.378l1.243-2.684c0.079-0.171,0.151-0.344,0.216-0.52
					c-4.755,5.707-11.615,9.747-17.324,13.108l-1.814,1.067L386.937,377.26z"/>
				<path style="fill:#5E2B2A;" d="M354.607,215.944c8.742,0,17.48,1.504,25.682,4.534c-1.324,0.869-2.594,1.568-4.096,2.071
					c8.337,0.055,16.659,4.663,21.492,11.456c-1.097-0.071-2.251-0.056-3.347-0.127c5.044,2.952,10.171,5.733,15.215,8.685
					c3.221,1.885,6.477,3.796,9.148,6.402c2.672,2.605,4.741,6.017,4.994,9.741c-0.81-0.94-1.769-1.505-2.807-2.184
					c0.471,2.614,2.294,4.676,3.975,6.733c4.258,5.211,6.972,11.668,7.715,18.356c-0.839-0.927-1.945-1.723-3.056-2.295
					c5.259,7.91,8.585,16.846,10.991,26.035c-0.922-0.865-1.872-1.595-2.794-2.46c3.187,8.173,4.489,16.73,3.922,25.484
					c-0.811-1.501-1.743-2.848-2.882-4.119c0.797,7.343-2.644,15.234-7.929,20.393c0.157-2.399-0.162-4.532-0.583-6.898
					c-3.78,11.982-12.68,22.499-23.796,28.354c0.785-1.695,0.887-3.494,1.172-5.34c-4.257,7.428-12.319,12.302-19.695,16.647
					c0.946-6.211,1.124-12.808,1.444-19.082c-0.945,1.096-1.81,2.141-2.208,3.533c-2.71-6.701-3.455-13.842-1.665-20.845
					c-0.876,0.594-1.816,1.363-2.24,2.333c-2.222-8.108-2.914-16.73-1.199-24.96c-1.511,1.335-3.299,2.922-4.136,4.756
					c-1.748-3.806-1.483-8.253-0.9-12.4s1.169-8.538-0.468-12.393c-0.778,1.254-1.637,3.109-1.805,4.576
					c-2.755-5.922-3.629-12.702-2.467-19.129c-1.222,0.209-2.609,1.432-2.751,2.663c-3.367-7.792,0.344-17.096-2.288-25.167
					c-0.381,1.755-1.041,3.397-0.995,5.193c-1.788-1.626-2.955-3.844-3.68-6.149c-0.724-2.306-1.037-4.718-1.346-7.115
					c-0.837,1.157-1.449,2.575-1.349,4c-3.188-4.429-5.924-9.183-8.152-14.165c0.019,0.843-0.21,1.756-0.191,2.599
					c-1.803-2.01-3.25-4.34-4.252-6.848c-0.38-0.952-0.7-1.935-1.2-2.83c-0.5-0.895-1.21-1.715-2.151-2.122
					c-1.257-0.542-2.6-0.757-3.977-0.757c-2.705,0-5.54,0.83-8.104,1.639c-1.217,0.384-2.486,0.869-3.733,0.869
					c-0.386,0-0.769-0.046-1.148-0.157c-1.202-0.349-2.143-1.299-2.833-2.343c-2.038-3.085-2.861-7.037-1.053-10.262
					C332.909,218.26,343.761,215.944,354.607,215.944 M354.61,213.944v2V213.944h-0.002c-11.24,0-22.436,2.453-32.375,7.093
					l-0.584,0.272l-0.315,0.562c-2.019,3.602-1.597,8.216,1.129,12.343c1.078,1.631,2.441,2.724,3.944,3.161
					c0.539,0.157,1.113,0.236,1.707,0.236c1.378,0,2.667-0.42,3.804-0.791c0.178-0.058,0.355-0.116,0.531-0.171
					c2.479-0.783,5.101-1.547,7.502-1.547c1.217,0,2.259,0.194,3.185,0.594c0.419,0.181,0.845,0.628,1.198,1.26
					c0.302,0.541,0.541,1.17,0.795,1.837c0.097,0.254,0.193,0.508,0.294,0.76c1.095,2.741,2.65,5.244,4.62,7.441l3.246,3.62
					c1.509,2.684,3.167,5.285,4.962,7.779l2.987,4.15c0.904,2.212,2.133,4.032,3.665,5.426l1.36,1.236
					c-0.006,1.302-0.062,2.634-0.12,3.991c-0.199,4.686-0.404,9.532,1.553,14.06l2.217,5.129c0.342,3.934,1.361,7.811,3.024,11.386
					l2.335,5.02c-0.074,0.566-0.152,1.126-0.23,1.675c-0.596,4.24-0.937,9.161,1.063,13.514l1.824,3.97l1.249-2.738
					c-0.312,5.98,0.41,12.316,2.151,18.666l1.206,4.4c-0.067,4.758,0.863,9.609,2.774,14.333l1.644,4.066
					c-0.205,3.526-0.489,7.054-1.004,10.433l-0.633,4.16l3.625-2.135c4.313-2.54,9.274-5.461,13.533-9.204l-0.324,0.699l5.231-2.755
					c8.974-4.727,16.543-12.393,21.32-21.345l-0.209,3.195l3.733-3.644c4.335-4.232,7.284-9.928,8.275-15.607l2.686,4.969
					l0.449-6.938c0.422-6.508-0.161-12.908-1.735-19.109l2.303,2.16l-1.757-6.711c-2.068-7.897-4.513-14.511-7.533-20.312
					l-0.349-3.141c-0.781-7.032-3.677-13.922-8.155-19.401l-0.363-0.442c-0.057-0.069-0.113-0.138-0.17-0.207l-0.188-2.769
					c-0.261-3.855-2.247-7.775-5.593-11.037c-2.862-2.791-6.254-4.776-9.534-6.696c-2.536-1.484-5.129-2.946-7.636-4.359
					c-0.568-0.32-1.141-0.643-1.716-0.968l-1.896-2.664c-4.002-5.625-10.191-9.761-16.773-11.454l2.158-1.417l-3.717-1.373
					C372.617,215.511,363.744,213.944,354.61,213.944L354.61,213.944z"/>
			</g>
			<path style="fill:#FFFFFF;" d="M433.598,311.654c-1.509-4.957-3.774-9.684-6.693-13.965c-0.002,3.165-0.755,6.328-2.178,9.155
				c-2.358-2.904-4.716-5.808-7.075-8.712c0.052,11.169-3.03,22.336-8.803,31.897c-0.595-4.28-2.552-8.36-5.517-11.503
				c-0.685,2.652-1.371,5.305-2.056,7.957c-0.755-1.871-1.942-3.565-3.441-4.915c0.051,3-1.116,6.004-3.179,8.183
				c-0.654-10.642-3.057-21.174-7.083-31.047c-0.884,1.929-1.768,3.858-2.651,5.787c-1.383-6.063-4.156-11.803-8.046-16.656
				c0.97,3.761,0.689,7.561-0.042,11.319c1.252,3.657,0.731,7.726,0.187,11.59c-0.583,4.147-0.848,8.594,0.9,12.4
				c0.837-1.834,2.625-3.421,4.136-4.756c-1.715,8.231-1.023,16.852,1.199,24.96c0.424-0.97,1.364-1.738,2.24-2.333
				c-1.79,7.003-1.045,14.144,1.665,20.844c0.398-1.391,1.263-2.437,2.208-3.533c-0.32,6.275-0.498,12.871-1.444,19.082
				c7.377-4.344,15.439-9.219,19.696-16.647c-0.285,1.846-0.388,3.645-1.172,5.34c11.116-5.855,20.016-16.372,23.796-28.354
				c0.422,2.367,0.74,4.5,0.583,6.898c5.285-5.159,8.726-13.051,7.929-20.393c1.139,1.271,2.071,2.618,2.882,4.119
				c0.567-8.755-0.735-17.311-3.922-25.484c0.922,0.865,1.872,1.595,2.794,2.46c-0.505-1.93-1.063-3.845-1.659-5.745
				c-1.649-0.98-3.385-1.815-5.211-2.462C435.305,301.789,435.289,307.017,433.598,311.654z"/>
			<g>
				<g>
					<path style="fill:#77C9D9;" d="M430.245,337.75c0.422,2.367,0.74,4.5,0.583,6.898c5.285-5.159,8.726-13.051,7.929-20.393
						c1.139,1.271,2.071,2.618,2.882,4.119c0.444-6.865-0.278-13.604-2.139-20.136c-2.4,9.053-6.323,17.703-11.632,25.42
						c-2.125-2.06-4.25-4.121-6.375-6.181c-0.039,4.643-1.392,9.268-3.862,13.199c-0.984-2.085-1.968-4.17-2.952-6.255
						c-0.234,6.445-4.351,12.596-10.22,15.269c-0.158-5.416-1.614-10.79-4.214-15.545c-0.967,1.758-1.934,3.516-2.902,5.274
						c-6.719-18.295-10.772-37.568-11.992-57.02c-1.408,1.475-2.815,2.951-4.223,4.426c-1.29-14.763-5.521-29.263-12.373-42.402
						c-0.424,1.641-0.849,3.283-1.273,4.924c-2.166-4.907-6.972-8.025-11.512-10.882c-4.54-2.857-9.325-6.033-11.396-10.981
						c-1.399-3.342-0.916-7.86,1.566-10.597c0.164-0.181,0.39-0.354,0.651-0.525c-8.193,0.845-16.249,3.001-23.714,6.486
						c-1.808,3.225-0.985,7.177,1.053,10.262c0.69,1.044,1.631,1.993,2.833,2.343c1.605,0.467,3.288-0.21,4.882-0.713
						c3.87-1.221,8.355-2.49,12.082-0.882c0.942,0.406,1.651,1.226,2.151,2.122c0.5,0.895,0.82,1.878,1.2,2.83
						c1.002,2.508,2.449,4.837,4.252,6.848c-0.019-0.843,0.21-1.756,0.191-2.599c2.228,4.981,4.964,9.736,8.152,14.165
						c-0.1-1.425,0.512-2.843,1.349-4c0.309,2.397,0.621,4.809,1.346,7.115c0.725,2.306,1.891,4.523,3.68,6.149
						c-0.046-1.795,0.614-3.438,0.995-5.193c2.632,8.07-1.079,17.375,2.288,25.167c0.142-1.232,1.529-2.454,2.751-2.663
						c-1.162,6.427-0.288,13.207,2.467,19.129c0.168-1.467,1.027-3.321,1.805-4.576c1.637,3.855,1.052,8.245,0.468,12.393
						s-0.848,8.594,0.9,12.4c0.837-1.834,2.625-3.421,4.136-4.756c-1.715,8.231-1.023,16.852,1.199,24.96
						c0.424-0.97,1.364-1.738,2.24-2.333c-1.79,7.003-1.045,14.144,1.665,20.844c0.398-1.391,1.263-2.437,2.208-3.533
						c-0.32,6.275-0.498,12.871-1.444,19.082c7.377-4.344,15.439-9.219,19.696-16.647c-0.285,1.846-0.388,3.645-1.172,5.34
						C417.565,360.249,426.465,349.732,430.245,337.75z"/>
				</g>
				<g>
					<path style="fill:#77C9D9;" d="M440.512,305.35c-0.052-0.198-0.111-0.394-0.163-0.591c-0.027,0.124-0.06,0.247-0.087,0.371
						C440.345,305.205,440.429,305.272,440.512,305.35z"/>
				</g>
			</g>
			<g>
				<g>
					<path style="fill:#B5EDF7;" d="M441.753,325.428c0.006-0.351,0.002-0.701,0.001-1.051c0-0.617-0.009-1.233-0.029-1.847
						c-0.014-0.436-0.031-0.872-0.054-1.307c-0.027-0.502-0.066-1.003-0.105-1.503c-0.04-0.5-0.074-1.001-0.127-1.5
						c-0.02-0.192-0.05-0.383-0.072-0.574c-0.159-1.371-0.363-2.735-0.618-4.092c-0.03-0.161-0.056-0.322-0.088-0.482
						c-0.14-0.714-0.296-1.424-0.463-2.133c-0.038-0.161-0.076-0.321-0.115-0.482c-0.181-0.741-0.371-1.481-0.581-2.218
						c0,0,0,0,0-0.001c-2.4,9.053-6.323,17.703-11.632,25.42c-2.125-2.06-4.25-4.121-6.375-6.181
						c-0.039,4.643-1.392,9.268-3.862,13.199c-0.984-2.085-1.968-4.17-2.952-6.255c-0.234,6.445-4.351,12.596-10.22,15.269
						c-0.158-5.416-1.614-10.79-4.214-15.545c-0.967,1.758-1.934,3.516-2.902,5.274c-4.734-12.89-8.138-26.266-10.167-39.848
						c-0.751,1.64-1.503,3.28-2.254,4.919c-1.383-6.063-4.156-11.803-8.046-16.656c0.97,3.761,0.689,7.561-0.042,11.319c0,0,0,0,0,0
						c1.252,3.657,0.731,7.726,0.187,11.59c-0.583,4.147-0.848,8.594,0.9,12.4c0.837-1.834,2.625-3.421,4.136-4.756
						c-1.715,8.231-1.023,16.852,1.199,24.96c0.424-0.97,1.364-1.738,2.24-2.333c-1.79,7.003-1.045,14.144,1.665,20.844
						c0.398-1.391,1.263-2.437,2.208-3.533c-0.32,6.275-0.498,12.871-1.444,19.082c7.377-4.344,15.439-9.219,19.696-16.647
						c-0.285,1.846-0.388,3.645-1.172,5.34c11.116-5.855,20.016-16.372,23.796-28.354c0.422,2.367,0.74,4.5,0.583,6.898
						c5.285-5.159,8.726-13.051,7.929-20.393c1.139,1.271,2.071,2.618,2.882,4.119C441.704,327.389,441.736,326.408,441.753,325.428
						z"/>
				</g>
				<g>
					<path style="fill:#77C9D9;" d="M440.349,304.759c-0.027,0.124-0.06,0.247-0.087,0.371c0.083,0.076,0.168,0.143,0.251,0.221
						C440.46,305.152,440.402,304.956,440.349,304.759z"/>
				</g>
			</g>
		</g>
		<g>
			<g>
				<path style="fill:#D6929F;" d="M147.993,156.231c-0.839,0-1.714-0.262-2.602-0.779c-6.729-3.917-9.428-15.048-9.119-24.341
					c0.298-8.934,5.787-16.292,6.02-16.601c0.193-0.255,0.491-0.397,0.798-0.397c0.115,0,0.232,0.02,0.344,0.061
					c0.413,0.151,0.679,0.555,0.655,0.994c-0.127,2.314,6.013,16.751,8.634,22.916c1.431,3.364,1.9,4.481,1.988,4.83
					c0.292,1.166-0.512,8.02-3.088,11.32C150.587,155.56,149.367,156.231,147.993,156.231
					C147.993,156.231,147.993,156.231,147.993,156.231z"/>
				<path style="fill:#5E2B2A;" d="M143.09,115.113h0.005 M143.09,115.113c-0.188,3.44,10.36,26.882,10.651,28.044
					c0.256,1.025-0.994,12.075-5.747,12.075c-0.635,0-1.334-0.198-2.1-0.643c-6.491-3.778-8.913-14.725-8.622-23.444
					S143.09,115.113,143.09,115.113 M143.097,113.107c-0.582,0-1.148,0.256-1.536,0.716c-0.029,0.035-0.058,0.071-0.085,0.107
					c-0.421,0.563-5.901,8.064-6.204,17.147c-0.296,8.889,2.044,20.832,9.615,25.239c1.043,0.607,2.088,0.915,3.106,0.915
					c1.167,0,2.88-0.413,4.417-2.382c2.798-3.584,3.636-10.715,3.27-12.178c-0.104-0.416-0.453-1.254-2.037-4.978
					c-2.329-5.478-8.496-19.979-8.556-22.446c0.003-0.045,0.005-0.09,0.005-0.136c0-0.123-0.011-0.244-0.033-0.362
					c-0.122-0.689-0.602-1.274-1.282-1.523C143.555,113.146,143.324,113.107,143.097,113.107L143.097,113.107z M143.09,117.113
					h0.005H143.09L143.09,117.113z"/>
			</g>
			<g>
				<path style="fill:#A5DCE7;" d="M139.578,162.547c-0.474-1.422-0.499-2.934-0.382-4.17l-1.35,1l0.106-2.113
					c0.092-1.833,1.009-3.203,1.716-3.998l-2.869-2.879l1.044-0.669c0.517-0.331,1.173-0.499,1.949-0.499
					c1.16,0,2.26,0.381,2.307,0.397c1.748,0.628,5.832,2.294,6.158,4.257c0.382,2.307-3.794,6.596-5.324,7.564
					c-1.223,0.773-1.518,1.25-1.521,1.255l-1.044,2.373L139.578,162.547z"/>
				<path style="fill:#5E2B2A;" d="M139.793,150.219c1.003,0,1.976,0.341,1.976,0.341s5.238,1.881,5.502,3.477
					c0.264,1.596-3.278,5.547-4.872,6.556c-1.595,1.008-1.872,1.639-1.872,1.639c-0.945-2.837,0.126-6.177,0.126-6.177l-1.702,1.261
					c0.126-2.521,2.143-4.034,2.143-4.034l-2.71-2.721C138.782,150.304,139.291,150.219,139.793,150.219 M139.793,148.219
					c-0.971,0-1.808,0.221-2.488,0.656l-2.09,1.338l1.751,1.758l1.362,1.368c-0.66,0.932-1.294,2.238-1.376,3.876l-0.211,4.225
					l1.418-1.05c0.054,0.808,0.194,1.65,0.469,2.474l1.639,4.919l2.017-4.583c0.107-0.118,0.434-0.444,1.182-0.917
					c1.336-0.845,6.285-5.5,5.777-8.573c-0.303-1.828-2.59-3.521-6.799-5.033C142.298,148.626,141.099,148.219,139.793,148.219
					L139.793,148.219z"/>
			</g>
			<g>
				<path style="fill:#A5DCE7;" d="M151.415,153.54c-2.079,0-3.379-1.978-4.474-4.116c-2.109-4.118-5.744-27.089-5.534-31.408
					c0.223-4.565,2.941-5.681,3.057-5.726l1.42-0.556l-0.056,1.524c-0.439,11.853,10.718,26.001,12.044,27.637
					c4.604,2.333,4.882,3.256,4.975,3.561c0.098,0.323,0.063,0.657-0.099,0.939c-0.295,0.517-1.091,1.165-3.477,3.038
					c-1.251,0.982-2.669,2.096-4.01,3.234C153.734,152.963,152.548,153.54,151.415,153.54
					C151.415,153.54,151.415,153.54,151.415,153.54z"/>
				<path style="fill:#5E2B2A;" d="M144.828,113.222h0.005 M144.828,113.222c-0.484,13.078,12.403,28.472,12.403,28.472
					s5.034,2.529,4.647,3.207c-0.388,0.678-4.069,3.294-7.266,6.006c-1.286,1.091-2.306,1.634-3.198,1.634
					c-1.325,0-2.368-1.197-3.584-3.571c-2.034-3.972-5.619-26.931-5.425-30.903C142.6,114.094,144.828,113.222,144.828,113.222
					 M146.939,110.248l-2.84,1.112c-0.351,0.137-3.441,1.491-3.691,6.609c-0.188,3.865,3.35,27.436,5.643,31.913
					c1.18,2.304,2.74,4.66,5.364,4.66c1.387,0,2.773-0.65,4.492-2.109c1.326-1.125,2.736-2.232,3.979-3.208
					c2.516-1.975,3.331-2.634,3.729-3.331c0.299-0.523,0.366-1.135,0.188-1.724c-0.183-0.607-0.486-1.612-5.287-4.066
					c-1.754-2.193-12.103-15.631-11.689-26.806L146.939,110.248L146.939,110.248z M144.833,111.222h0.005H144.833L144.833,111.222z
					 M144.828,115.222h0.005H144.828L144.828,115.222z"/>
			</g>
		</g>
		<ellipse style="fill:#5E2B2A;" cx="265.393" cy="390.986" rx="180.047" ry="11.997"/>
		<g>
			<g>
				<path style="fill:#FFFFFF;" d="M241.836,388.889c-1.518,0-4.381-0.771-6.513-5.927c-2.859-6.918,2.24-15.351,5.214-16.639
					c0.496-0.214,1.026-0.323,1.577-0.323c2.581,0,4.832,2.422,4.926,2.525l0.166,0.182l0.063,0.237
					c0.345,1.298,3.27,12.804-0.196,16.996C245.48,387.869,243.669,388.889,241.836,388.889
					C241.837,388.889,241.837,388.889,241.836,388.889z"/>
				<path style="fill:#5E2B2A;" d="M242.115,367c2.171,0,4.189,2.201,4.189,2.201s3.238,12.186,0,16.103
					c-1.382,1.672-2.935,2.585-4.467,2.585c-2.057,0-4.075-1.646-5.589-5.309c-2.642-6.391,2.13-14.231,4.687-15.339
					C241.326,367.072,241.723,367,242.115,367 M242.115,365c-0.689,0-1.353,0.137-1.975,0.406c-3.77,1.634-8.704,10.767-5.74,17.938
					c2.354,5.695,5.67,6.545,7.437,6.545c2.14,0,4.218-1.145,6.008-3.31c3.706-4.483,0.976-15.69,0.391-17.891l-0.126-0.475
					l-0.332-0.362C247.511,367.558,245.08,365,242.115,365L242.115,365z"/>
			</g>
			<g>
				<path style="fill:#77C9D9;" d="M258.711,390.331c-2.443,0-4.428-1.263-5.487-2.114c-0.688,0.701-1.838,1.58-3.38,1.738
					c-0.142,0.015-0.287,0.021-0.438,0.021c-1.43,0-6.187-0.796-7.361-11.038c-1.063-9.274,3.053-13.459,6.693-15.336
					c0.905-0.467,1.935-0.703,3.061-0.703c2.316,0,4.49,1.002,5.459,1.52c8.795-5.18,22.17-30.933,21.651-33.524
					c-0.527-1.87-2.67-5.784-4.273-8.574v1.604l-1.633-1.336c-1.039-0.85-2.694-3.267-4.065-5.428l0.238,2.293l-1.975-1.911
					c-1.629-1.577-3.258-5.355-4.353-8.301l-0.318,2.017l-1.41-2.513c-2.8-4.987-1.503-13.195-1.446-13.542l0.067-0.412l0.34-0.241
					c1.16-0.826,28.513-20.218,37.42-20.218c0.299,0,0.581,0.02,0.841,0.061c1.589,0.244,3.007,1.264,4.215,3.029
					c4.643,6.791,5.358,24.077,4.64,27.316c-0.527,2.371-3.745,7.98-6.331,12.486c-1.224,2.133-2.489,4.338-2.635,4.802
					c-0.144,0.46-0.73,2.829,1.864,4.271c2.902,1.612,4.554,5.677,4.623,5.85l0.914,2.285l-2.281-1.015
					c0.178,3.188-1.075,6.998-1.141,7.193l-0.763,2.29l-1.08-2.159c-0.042-0.084-0.107-0.185-0.189-0.297
					c-0.608,2.101-1.838,3.76-1.907,3.852l-1.305,1.74l-0.472-2.123c-0.033-0.152-0.098-0.34-0.178-0.542
					c-4.181,5.896-16.806,26.132-18.97,29.607c0.58,1.036,1.748,3.265,1.892,4.652c0.218,2.099-0.411,7.784-5.866,8.875
					c-0.761,0.152-1.52,0.229-2.256,0.229c-2.289,0-3.995-0.734-5.048-1.375c-0.616,1.42-1.995,3.498-4.983,4.558
					C260.314,390.192,259.516,390.331,258.711,390.331z"/>
				<path style="fill:#5E2B2A;" d="M297.501,275.333c0.245,0,0.475,0.016,0.688,0.049c7.769,1.195,8.808,25.641,8.03,29.141
					c-0.778,3.5-8.457,15.651-8.944,17.207c-0.486,1.555-0.292,3.986,2.333,5.444c2.625,1.458,4.18,5.347,4.18,5.347l-1.75-0.778
					c1.069,3.014-0.778,8.555-0.778,8.555c-0.389-0.778-1.75-2.042-1.75-2.042c0,2.722-2.041,5.444-2.041,5.444
					c-0.194-0.875-0.972-2.236-0.972-2.236c-2.916,3.5-20.317,31.497-20.317,31.497s1.899,3.194,2.062,4.774
					c0.164,1.58-0.163,6.812-5.068,7.793c-0.736,0.147-1.422,0.21-2.058,0.21c-3.602,0-5.571-2.008-5.571-2.008
					s-0.6,3.76-4.796,5.249c-0.705,0.25-1.388,0.354-2.038,0.354c-3.215,0-5.592-2.551-5.592-2.551s-1.253,1.962-3.379,2.18
					c-0.108,0.011-0.22,0.017-0.336,0.017c-2.149,0-5.436-2.034-6.367-10.153c-0.981-8.556,2.67-12.534,6.158-14.332
					c0.832-0.429,1.725-0.592,2.603-0.592c2.803,0,5.451,1.665,5.451,1.665c8.9-4.575,23.538-31.689,22.623-34.933
					c-0.915-3.244-6.238-11.977-6.238-11.977v3.161c-1.83-1.497-6.155-8.983-6.155-8.983l0.416,3.992
					c-2.579-2.495-5.406-11.728-5.406-11.728l-0.499,3.161c-2.662-4.741-1.331-12.892-1.331-12.892S288.81,275.333,297.501,275.333
					 M297.501,273.333c-9.068,0-35.065,18.314-38,20.403l-0.68,0.484l-0.134,0.824c-0.059,0.361-1.409,8.903,1.561,14.193
					l2.821,5.025l0.206-1.302c0.957,2.139,2.079,4.187,3.232,5.303l3.949,3.822l-0.109-1.052c0.747,1.016,1.458,1.868,2.023,2.331
					l3.134,2.564c1.089,2.019,2.059,3.981,2.41,5.129c-0.12,3.512-12.662,26.876-20.704,32.213c-1.201-0.584-3.222-1.369-5.41-1.369
					c-1.287,0-2.471,0.274-3.519,0.814c-3.209,1.655-8.416,5.978-7.228,16.338c1.269,11.065,6.715,11.925,8.354,11.925
					c0.186,0,0.366-0.01,0.54-0.027c1.417-0.145,2.54-0.781,3.349-1.44c1.258,0.866,3.159,1.822,5.417,1.822
					c0.918,0,1.829-0.158,2.706-0.469c2.689-0.954,4.216-2.664,5.069-4.134c1.148,0.541,2.699,1.009,4.629,1.009
					c0.802,0,1.626-0.084,2.45-0.249c5.532-1.106,7.017-6.562,6.665-9.96c-0.141-1.365-1.051-3.265-1.727-4.519
					c4.26-6.84,13.054-20.835,17.376-27.241l0.58,2.609l2.609-3.479c0.119-0.159,0.68-0.928,1.234-2.046l1.33,2.66l1.525-4.584
					c0.143-0.428,1.019-3.155,1.182-5.975l3.132,1.392l-1.828-4.569c-0.186-0.466-1.911-4.599-5.066-6.352
					c-1.818-1.01-1.582-2.504-1.395-3.099c0.176-0.47,1.436-2.666,2.547-4.603c3.331-5.806,5.921-10.432,6.439-12.766
					c0.684-3.079,0.214-20.779-4.79-28.097c-1.37-2.004-3.015-3.166-4.888-3.454C298.182,273.357,297.849,273.333,297.501,273.333
					L297.501,273.333z"/>
			</g>
			<path style="fill:#FFFFFF;" d="M282.906,354.981c0.286-1.895,0.572-3.79,0.857-5.686c-1.154,2.07-2.661,3.944-4.437,5.514
				c0.318-3.129,0.637-6.258,0.955-9.387c-1.448,3.472-3.911,6.513-7.006,8.651c-0.035-1.362-0.069-2.724-0.104-4.085
				c-1.468,1.909-2.936,3.817-4.403,5.726c0.282-1.164,0.472-2.349,0.586-3.54c-4.042,6.093-8.534,11.556-12.104,13.39
				c0,0-4.566-2.871-8.054-1.073c-3.488,1.798-7.139,5.777-6.158,14.332c0.981,8.556,4.578,10.354,6.703,10.136
				c2.125-0.218,3.379-2.18,3.379-2.18s3.433,3.685,7.629,2.197c4.196-1.488,4.796-5.249,4.796-5.249s2.725,2.779,7.629,1.798
				c4.905-0.981,5.232-6.212,5.068-7.793c-0.163-1.58-2.062-4.775-2.062-4.775s5.868-9.441,11.36-18.044
				c0.14-2.337,0.338-4.671,0.609-6.996C286.924,350.607,285.125,353.031,282.906,354.981z"/>
			<path style="fill:#FFFFFF;stroke:#5E2B2A;stroke-width:2;stroke-linecap:round;stroke-miterlimit:10;" d="M253.071,387.889
				c0,0-3.273-5.224-1.995-13.66c1.278-8.437,6.903-9.118,10.056-6.136c3.153,2.983,5.283,1.023,5.283,1.023"/>
		</g>
		<g>
			<g>
				<path style="fill:#FFFFFF;" d="M143.435,393.275c-3.649,0-6.875-3.106-8.029-7.729c-1.121-4.494,0.161-9.207,1.929-11.883
					c0.995-1.507,2.13-2.4,3.282-2.585c0.25-0.04,0.501-0.059,0.752-0.059c2.895,0,5.594,2.55,5.708,2.658l0.166,0.159l0.08,0.216
					c0.518,1.396,4.932,13.744,0.509,17.511C146.517,392.684,144.996,393.275,143.435,393.275L143.435,393.275z"/>
				<path style="fill:#5E2B2A;" d="M141.37,372.019c2.527,0,5.016,2.382,5.016,2.382s4.816,12.979,0.798,16.401
					c-1.184,1.008-2.476,1.474-3.749,1.474c-3.048,0-5.986-2.672-7.058-6.971c-1.521-6.095,1.684-12.804,4.399-13.238
					C140.973,372.034,141.172,372.019,141.37,372.019 M141.37,370.019c-0.308,0-0.614,0.024-0.91,0.071
					c-1.436,0.23-2.805,1.274-3.958,3.021c-1.889,2.859-3.26,7.888-2.065,12.677c1.266,5.076,4.883,8.487,8.999,8.487
					c1.801,0,3.546-0.675,5.045-1.951c4.839-4.12,0.667-16.233-0.219-18.619l-0.16-0.431l-0.332-0.318
					C147.455,372.655,144.606,370.019,141.37,370.019L141.37,370.019z"/>
			</g>
			<g>
				<path style="fill:#77C9D9;" d="M170.421,391.451c-1.815,0-3.195-0.293-3.253-0.306l-0.427-0.092l-7.077-11.964l0.044-0.341
					c0.024-0.185,2.417-18.615,4.784-29.815c2.291-10.842-2.71-22.415-11.06-40.399c-8.27-17.812-8.046-37.451-8.043-37.648
					l0.032-1.955l1.566,1.171c2.794,2.087,27.344,20.554,29.138,26.276c0.53,1.69,1.128,3.982,1.761,6.407
					c1.228,4.703,3.083,11.812,4.291,12.833c2.191,1.854,4.907,8.392,5.21,9.131l1.139,2.786c0,0-2.614-1.57-2.633-1.58
					c0.847,1.946,1.442,4.119,1.534,4.462l0.986,3.684l-2.564-2.621c0.429,1.983,0.783,4.166,0.805,4.303l0.661,4.099l-2.632-3.59
					c-0.168,1.509-0.423,3.584-0.753,6.254c-0.89,7.197-2.379,19.243-1.905,21.142c0.69,2.758-0.139,5.78-2.533,9.239
					c-1.026,1.481-2.372,5.277-2.936,7.013c0.724,1.741,3.099,8.209-0.579,10.265C174.496,391.031,172.627,391.451,170.421,391.451z
					"/>
				<path style="fill:#5E2B2A;" d="M146.388,270.903c0,0,27.033,20.196,28.783,25.775c1.749,5.579,4.294,17.956,6.361,19.705
					c2.067,1.749,4.93,8.746,4.93,8.746c-0.795-0.477-2.703-0.954-2.703-0.954c1.431,1.749,2.703,6.503,2.703,6.503
					c-0.795-0.812-2.226-1.414-2.226-1.414c0.636,1.749,1.431,6.679,1.431,6.679l-1.749-2.385c0,2.703-3.657,27.192-2.862,30.373
					c0.795,3.18-0.954,6.361-2.385,8.428c-1.431,2.067-3.18,7.633-3.18,7.633s3.339,7.474,0,9.341
					c-1.588,0.887-3.499,1.12-5.067,1.12c-1.73,0-3.043-0.283-3.043-0.283l-6.679-11.29c0,0,2.385-18.446,4.771-29.737
					c2.385-11.29-2.862-23.217-11.131-41.027C146.07,290.303,146.388,270.903,146.388,270.903 M144.452,266.96l-0.064,3.91
					c-0.013,0.811-0.229,20.066,8.137,38.086c8.263,17.797,13.214,29.239,10.989,39.772c-2.374,11.238-4.773,29.708-4.797,29.894
					l-0.088,0.682l0.35,0.592l6.679,11.29l0.445,0.752l0.854,0.184c0.062,0.013,1.544,0.328,3.465,0.328
					c2.378,0,4.411-0.462,6.042-1.374c4.161-2.326,2.058-8.867,1.154-11.172c0.698-2.104,1.875-5.224,2.695-6.409
					c2.532-3.658,3.434-7.039,2.681-10.052c-0.414-1.843,1.109-14.16,1.927-20.776c0.174-1.407,0.327-2.65,0.458-3.735l3.583,4.886
					l-1.322-8.195c-0.021-0.132-0.085-0.523-0.179-1.065l2.903,2.966l-1.971-7.365c-0.079-0.294-0.273-0.997-0.56-1.876l2.756,1.654
					l-2.277-5.566c-0.509-1.244-3.165-7.55-5.489-9.516c-1.034-1.079-2.872-8.118-3.97-12.324c-0.636-2.437-1.237-4.739-1.775-6.453
					c-1.849-5.897-24.893-23.341-29.494-26.778L144.452,266.96L144.452,266.96z"/>
			</g>
			<path style="fill:#FFFFFF;" d="M179.746,344.408c0.091,2.391-0.41,4.802-1.444,6.96c-0.558-3.357-1.116-6.713-1.674-10.07
				c-0.455,1.771-0.909,3.543-1.364,5.315c-0.84-4.378-2.452-8.606-4.741-12.432c0.441,3.589,0.259,7.253-0.534,10.78
				c-0.676-1.107-1.352-2.215-2.027-3.322c0.406,2.913-0.247,5.962-1.811,8.453c-0.172-0.543-0.332-1.243-0.501-2.012
				c-0.06,0.354-0.105,0.709-0.179,1.061c-2.385,11.29-4.771,29.737-4.771,29.737l6.679,11.29c0,0,4.771,1.03,8.11-0.837
				c3.339-1.867,0-9.341,0-9.341s1.749-5.566,3.18-7.633c1.431-2.067,3.18-5.248,2.385-8.428c-0.413-1.653,0.377-9.064,1.23-16.18
				C181.607,346.517,180.772,345.381,179.746,344.408z"/>
			<g>
				<path style="fill:#FFFFFF;" d="M151.352,394.07c-0.504,0-1.036-0.02-1.598-0.062c-2.059-0.151-3.699-1.091-4.873-2.791
					c-2.947-4.265-2.001-12.053-1.082-15.156c1.428-4.819,3.943-5.705,8.699-5.785l0.193-0.002c4.943,0,7.226,3.131,7.32,3.265
					l0.183,0.257l0.002,0.315c0.003,0.49,0.076,12.027-0.001,14.099C160.096,390.913,157.719,394.07,151.352,394.07
					C151.352,394.07,151.352,394.07,151.352,394.07z"/>
				<path style="fill:#5E2B2A;" d="M152.693,371.275c4.483,0,6.503,2.843,6.503,2.843s0.077,11.981,0,14.055
					c-0.071,1.921-1.79,4.897-7.844,4.897c-0.481,0-0.989-0.019-1.526-0.058c-7.296-0.538-6.298-12.519-5.069-16.666
					c1.229-4.147,3.149-4.992,7.757-5.069C152.575,371.276,152.634,371.275,152.693,371.275 M152.693,369.275l-0.212,0.002
					c-5.028,0.084-8.054,1.145-9.641,6.501c-0.964,3.253-1.935,11.447,1.217,16.009c1.336,1.934,3.28,3.047,5.622,3.22
					c0.574,0.042,1.137,0.064,1.673,0.064c7.57,0,9.749-4.289,9.843-6.823c0.077-2.093,0.004-13.651,0.001-14.142l-0.004-0.631
					l-0.365-0.514C160.72,372.809,158.146,369.275,152.693,369.275L152.693,369.275z"/>
			</g>
			<g>
				<path style="fill:#FFFFFF;" d="M162.361,395.025c-2.75,0-5.147-1.104-6.578-3.03c-0.621-0.833-3.245-6.839-0.692-15.248
					c1.18-3.888,3.711-6.118,6.944-6.118c3.573,0,7.106,2.82,8.402,6.706c2.363,7.088,0.671,14.915-3.62,16.75
					C165.378,394.7,163.837,395.025,162.361,395.025z"/>
				<path style="fill:#5E2B2A;" d="M162.035,371.629c3.06,0,6.26,2.444,7.453,6.022c2.15,6.451,0.707,13.901-3.064,15.514
					c-1.352,0.578-2.743,0.86-4.063,0.86c-2.361,0-4.495-0.903-5.776-2.627c-0.137-0.185-3.149-5.76-0.538-14.362
					C157.211,373.206,159.578,371.629,162.035,371.629 M162.035,369.629L162.035,369.629c-3.704,0-6.584,2.488-7.901,6.827
					c-2.657,8.753,0.037,15.047,0.846,16.136c1.621,2.182,4.311,3.434,7.381,3.434c1.61,0,3.286-0.353,4.849-1.022
					c4.742-2.028,6.693-10.432,4.175-17.985C169.958,372.737,166.026,369.629,162.035,369.629L162.035,369.629z"/>
			</g>
		</g>
		<g>
			<g>
				<path style="fill:#A5DCE7;" d="M328.839,386.305c-4.138,0-11.097-1.966-12.857-5.521c-0.511-1.031-0.818-2.656,0.617-4.542
					c2.499-3.279,6.854-14.272,10.353-23.105c1.868-4.718,3.634-9.174,4.931-12.02c3.927-8.612,4.134-11.549,0.966-13.661
					c-3.078-2.052-12.924-9.07-17.367-12.245l0.642,2.568l-2.034-1.162c-3.263-1.864-6.151-4.727-7.913-6.682v2.8l-1.668-1.497
					c-3.009-2.7-4.849-6.732-5.845-9.557l-0.825,2.716l-1.169-1.818c-2.645-4.113-4.484-13.723-5.006-16.698
					c-9.24,0.548-19.433,6.279-32.234,13.478c-5.682,3.195-11.557,6.499-18.059,9.75c-12.566,6.283-25.859,7.602-34.798,7.602
					c-4.164,0-7.441-0.279-9.405-0.505l1.866,3.263l-2.196-0.477c-4.682-1.018-8.367-3.487-10.613-5.354l0.355,1.597l-1.745-0.679
					c-3.882-1.509-9.418-8.146-10.333-9.265c-1.142-0.668-2.296-1.726-3.287-2.777l0.144,0.624l-1.811-0.776
					c-5.181-2.22-10.387-8.702-11.257-9.817c-2.137-1.301-3.6-2.769-4.523-3.902l-0.589,2.157l-1.228-1.438
					c-2.01-2.358-3.59-6.404-4.536-9.284l-0.979,3.438l-1.1-2.651c-2.013-4.854-2.736-14.545-2.975-19.207l-1.47,1.761l-0.208-2.42
					c-0.226-2.636-0.403-6.707-0.495-9.109l-3.727,2.912l0.059-2.124c0.082-2.954,1.442-7.835,2.258-10.521
					c-0.79,0.131-1.751,0.197-2.878,0.197c-0.27,0-0.434-0.005-0.434-0.005l-1.512-0.045l0.633-1.373
					c1.418-3.073,4.216-5.482,5.995-6.788c-5.885-2.448-18.243-7.913-19.034-10.921c-0.514-1.954,0.016-4.227,0.595-5.875
					c-0.626,0.12-1.223,0.157-1.722,0.157c-0.557,0-0.916-0.048-0.916-0.048l-1.151-0.154l0.318-1.116
					c0.634-2.189,3.474-4.821,5.578-6.531c-2.764-0.576-4.323-2.42-4.4-2.512l-0.94-1.134l1.401-0.455
					c5.418-1.759,11.034-6.827,12.172-7.891c0.673-2.884,6.117-26.235,8.097-35.571c1.609-7.587,7.913-12.844,11.359-15.215
					c-0.472-0.153-0.81-0.293-0.889-0.326l-1.324-0.558l0.982-1.048c0.797-0.851,2.395-1.505,3.931-1.97
					c-0.372-0.174-0.609-0.303-0.64-0.319l-1.208-0.66l1.001-0.945c1.717-1.622,3.966-2.339,5.602-2.657
					c-1.111-1.408-1.791-2.969-1.831-3.061l-0.522-1.211l1.306-0.177c0.234-0.031,0.475-0.047,0.721-0.047
					c2.272,0,4.951,1.354,6.905,2.575c-0.421-1.247-0.785-2.402-0.857-2.635l-0.529-1.694l1.723,0.424
					c3.835,0.945,8.508,8.597,9.553,10.382c7.837,3.705,11.829,14.6,13.344,18.735c0.207,0.564,0.42,1.146,0.524,1.372
					c0.51,0.338,3.099,1.115,5.253,1.628l1.398,0.333l-0.797,1.195c-0.288,0.432-0.825,1.016-1.287,1.489
					c1.528,1.065,4.566,2.813,6.493,3.863l1.534,0.837l-1.498,0.898c-0.146,0.087-0.299,0.176-0.455,0.263
					c2.615,1.729,6.007,4.233,6.178,4.36l1.312,0.97l-1.458,0.729c-1.022,0.511-3.112,1.194-4.621,1.66
					c2.766,2.746,5.944,7.52,6.101,7.757l0.797,1.203l-1.406,0.324c-0.205,0.047-0.45,0.07-0.749,0.07c0,0,0,0,0,0
					c-0.509,0-1.159-0.069-1.775-0.156c0.857,2.342,0.823,4.83,0.821,4.963l-0.019,0.981h-0.981c-0.431,0-0.903-0.064-1.389-0.169
					c3.081,2.71,7.374,6.141,9.389,7.711l1.249,0.974l-1.417,0.709c-0.714,0.357-1.829,0.716-2.899,1.017
					c3.332,1.025,7.762,1.691,7.82,1.7l1.402,0.209l-0.667,1.251c-0.36,0.676-1.88,2.074-3.229,3.24
					c3.361,0.666,9.066,2.058,10.481,2.406l1.31,0.322l-1.057,1.781c1.935,0.123,5.227,0.27,7.442,0.356l1.108,0.043l-0.157,1.098
					c-0.083,0.583-0.454,1.311-0.808,1.898c3.572,1.594,15.725,6.612,27.096,6.612c4.553,0,8.49-0.804,11.703-2.39
					c12.12-5.984,28.553-8.662,39.461-8.662c4.547,0,8.327,0.46,10.934,1.331c14.477,4.839,21.789,13.575,27.942,33.381
					c5.13,16.513,2.638,39.014,1.439,49.827c-0.256,2.316-0.459,4.146-0.459,4.907c0,3.131,4.166,7.489,5.771,8.904l1.188,1.046
					l-1.722,0.737c1.925,2.068,3.903,5.581,4.168,6.058l0.697,1.256l-1.899,0.292c0.46,2.763-0.093,8.161-2.747,12.195
					c-2.957,4.495-16.985,42.428-17.126,42.811l-0.034,0.092l-0.052,0.084c-0.16,0.262-4.002,6.432-9.827,6.83
					C329.412,386.295,329.131,386.305,328.839,386.305z"/>
				<path style="fill:#5E2B2A;" d="M166.071,133.537c3.799,0.936,9.086,10.187,9.086,10.187
					c9.343,4.146,13.137,19.234,13.791,19.969c0.654,0.736,5.804,1.962,5.804,1.962c-0.49,0.736-1.962,2.125-1.962,2.125
					c1.226,1.226,7.52,4.659,7.52,4.659c-0.817,0.49-1.939,1.035-1.939,1.035c2.552,1.531,7.583,5.249,7.583,5.249
					c-1.604,0.802-6.197,2.114-6.197,2.114c2.844,2.042,7.291,8.749,7.291,8.749c-0.136,0.031-0.315,0.045-0.525,0.045
					c-1.255,0-3.558-0.482-3.558-0.482c1.677,2.406,1.604,6.27,1.604,6.27c-2.042,0-5.483-1.797-5.483-1.797
					c1.865,2.549,12.868,11.128,12.868,11.128c-1.616,0.808-5.657,1.679-5.657,1.679c2.922,1.741,10.879,2.922,10.879,2.922
					c-0.497,0.932-4.662,4.352-4.662,4.352c1.43,0,12.558,2.735,12.558,2.735l-1.181,1.989c1.057,0.187,9.076,0.497,9.076,0.497
					c-0.124,0.87-1.298,2.46-1.298,2.46s14.727,7.192,28.577,7.192c4.286,0,8.49-0.689,12.145-2.494
					c11.26-5.559,27.411-8.559,39.018-8.559c4.336,0,8.041,0.419,10.617,1.28c13.62,4.553,21.04,12.565,27.305,32.73
					c6.265,20.165,0.935,50.161,0.935,54.438c0,4.277,6.11,9.653,6.11,9.653l-1.711,0.733c2.077,1.344,5.132,6.843,5.132,6.843
					l-1.589,0.244c0.733,1.466,0.733,7.821-2.322,12.464c-3.055,4.644-17.23,43.013-17.23,43.013s-3.666,5.988-9.042,6.354
					c-0.248,0.017-0.508,0.025-0.777,0.025c-5.561,0-15.173-3.561-11.443-8.457c3.91-5.132,11.609-27.005,15.397-35.315
					c3.788-8.309,4.643-12.22,0.611-14.908c-4.033-2.688-19.552-13.808-19.552-13.808l0.733,2.933
					c-5.132-2.933-9.409-8.554-9.409-8.554v3.299c-4.766-4.277-6.498-12.296-6.498-12.296l-1.169,3.839
					c-3.005-4.674-5.008-17.193-5.008-17.193c-13.855,0.334-29.88,12.52-51.58,23.37c-12.33,6.165-25.378,7.496-34.349,7.496
					c-6.818,0-11.28-0.769-11.28-0.769l1.756,3.073c-7.573-1.646-12.511-7.353-12.511-7.353l0.659,2.963
					c-3.951-1.537-10.038-9.109-10.038-9.109c-2.794-1.536-5.876-5.926-5.876-5.926l0.658,2.853
					c-5.378-2.305-10.975-9.658-10.975-9.658c-4.061-2.414-5.597-5.487-5.597-5.487l-0.658,2.414
					c-3.183-3.731-5.315-12.225-5.315-12.225l-1.137,3.994c-2.611-6.298-3.005-21.454-3.005-21.454l-1.574,1.885
					c-0.337-3.935-0.562-11.02-0.562-11.02l-3.598,2.811c0.112-4.048,2.811-12.144,2.811-12.144c-0.81,0.72-3.418,0.792-4.429,0.792
					c-0.253,0-0.406-0.004-0.406-0.004c2.024-4.385,7.196-7.421,7.196-7.421s-19.354-7.833-20.177-10.961
					c-0.823-3.128,1.482-7.408,1.482-7.408c-1.181,0.805-2.677,0.945-3.575,0.945c-0.479,0-0.787-0.04-0.787-0.04
					c0.905-3.128,7.491-7.738,7.491-7.738c-0.422,0.068-0.826,0.098-1.211,0.098c-3.369,0-5.292-2.32-5.292-2.32
					c6.338-2.058,12.769-8.323,12.769-8.323s6.041-25.85,8.169-35.883s13.124-15.961,13.124-15.961
					c-0.078,0.006-0.157,0.009-0.238,0.009c-1.299,0-3.005-0.718-3.005-0.718c1.52-1.621,7.094-2.533,7.094-2.533
					c-1.824-0.101-4.054-1.317-4.054-1.317c2.736-2.584,7.094-2.635,7.094-2.635c-1.824-1.267-3.091-4.206-3.091-4.206
					c0.191-0.026,0.387-0.038,0.587-0.038c3.74,0,8.985,4.258,8.985,4.258C167.448,137.942,166.071,133.537,166.071,133.537
					 M163.103,130.746l1.059,3.388c0.017,0.054,0.039,0.124,0.065,0.208c-1.646-0.808-3.478-1.446-5.159-1.446
					c-0.292,0-0.58,0.019-0.855,0.056l-2.612,0.353l1.043,2.421c0.076,0.175,0.457,1.035,1.093,2.047
					c-1.517,0.451-3.232,1.224-4.633,2.548l-2.002,1.891l1.087,0.593c-0.889,0.404-1.678,0.886-2.211,1.453l-1.965,2.096
					l1.865,0.785c-3.663,2.808-8.815,7.842-10.278,14.742c-1.921,9.058-7.109,31.337-8.023,35.252
					c-1.475,1.352-6.639,5.863-11.577,7.466l-2.802,0.91l1.88,2.268c0.068,0.082,1.176,1.393,3.156,2.268
					c-1.929,1.718-3.957,3.898-4.525,5.86l-0.649,2.241l2.314,0.298c0.073,0.009,0.465,0.056,1.043,0.056
					c0.104,0,0.211-0.001,0.322-0.005c-0.391,1.543-0.594,3.335-0.162,4.977c0.363,1.381,1.579,3.247,11.473,7.951
					c2.387,1.135,4.766,2.186,6.592,2.971c-1.734,1.456-3.789,3.565-4.965,6.114l-1.267,2.745l3.024,0.093
					c0,0,0.175,0.005,0.464,0.005c0.549,0,1.045-0.015,1.494-0.043c-0.808,2.815-1.803,6.761-1.875,9.34l-0.118,4.248l3.348-2.616
					l0.517-0.404c0.099,2.304,0.243,5.155,0.419,7.207l0.415,4.84l1.412-1.692c0.352,5.125,1.15,12.802,2.897,17.016l2.199,5.303
					l0.917-3.22c0.949,2.396,2.191,4.956,3.662,6.68l2.455,2.879l0.609-2.232c0.873,0.865,1.983,1.79,3.361,2.647
					c1.172,1.482,6.334,7.747,11.539,9.978l2.477,1.061c0.702,0.651,1.451,1.254,2.207,1.717c1.304,1.589,6.638,7.875,10.635,9.429
					l3.49,1.357l-0.174-0.783c2.274,1.553,5.28,3.133,8.837,3.906l4.391,0.954l-2.017-3.531c1.951,0.169,4.532,0.318,7.576,0.318
					c9.046,0,22.504-1.337,35.244-7.707c6.524-3.262,12.41-6.572,18.102-9.772c11.794-6.632,22.079-12.415,30.922-13.281
					c0.691,3.731,2.477,12.265,4.987,16.17l2.337,3.636l0.631-2.072c1.124,2.484,2.761,5.25,5.045,7.3l3.336,2.994v-2.544
					c1.736,1.724,3.973,3.656,6.417,5.053l4.069,2.325l-0.552-2.207c4.916,3.507,12.498,8.895,15.184,10.685
					c2.455,1.637,2.625,3.758-1.321,12.414c-1.308,2.868-3.078,7.337-4.952,12.067c-3.476,8.775-7.801,19.695-10.216,22.865
					c-1.363,1.789-1.618,3.776-0.719,5.592c1.964,3.965,9.249,6.076,13.753,6.076c0.316,0,0.621-0.01,0.913-0.03
					c6.334-0.432,10.44-7.025,10.612-7.305l0.102-0.167l0.068-0.184c3.921-10.613,14.622-38.955,17.025-42.607
					c2.525-3.837,3.238-8.741,3.001-11.901l2.382-0.366l-1.395-2.511c-0.37-0.667-1.79-3.159-3.403-5.186l1.932-0.828l-2.378-2.092
					c-2.099-1.853-5.431-5.707-5.431-8.152c0-0.707,0.2-2.512,0.453-4.798c1.205-10.881,3.713-33.522-1.479-50.234
					c-6.266-20.168-13.745-29.074-28.581-34.033c-2.707-0.905-6.597-1.383-11.251-1.383c-11.023-0.001-27.637,2.71-39.904,8.765
					c-3.074,1.518-6.863,2.287-11.26,2.287c-10.302,0-21.296-4.209-25.705-6.095c0.195-0.427,0.348-0.867,0.406-1.274l0.314-2.195
					l-2.216-0.086c-1.986-0.077-4.109-0.172-5.782-0.26l0.906-1.526l-2.619-0.644c-2.003-0.492-5.62-1.368-8.574-2.008
					c1.053-0.983,1.711-1.718,1.966-2.196l1.335-2.502l-2.805-0.417c-0.965-0.143-2.732-0.45-4.567-0.861l2.78-1.39l-2.499-1.949
					c-2.019-1.574-4.719-3.743-7.108-5.753h0.455l0.037-1.962c0.005-0.283,0.014-1.939-0.435-3.836
					c0.135,0.007,0.266,0.01,0.39,0.01c0.376,0,0.695-0.031,0.974-0.096l2.812-0.649l-1.595-2.405
					c-0.346-0.521-2.688-4.018-5.115-6.733c1.222-0.402,2.489-0.857,3.248-1.237l2.917-1.459l-2.623-1.939
					c-0.145-0.107-2.566-1.895-4.904-3.5l2.097-1.258l-3.067-1.673c-1.868-1.019-3.992-2.251-5.439-3.169
					c0.228-0.263,0.434-0.522,0.587-0.751l1.593-2.389l-2.794-0.666c-1.894-0.451-3.903-1.054-4.709-1.4
					c-0.103-0.266-0.237-0.633-0.361-0.971c-1.536-4.191-5.554-15.157-13.573-19.158c-1.462-2.468-5.982-9.59-10.023-10.586
					L163.103,130.746L163.103,130.746z"/>
			</g>
			<g>
				<path style="fill:#77C9D9;" d="M288.367,273.147c-0.408-2.44,0.057-5.017,1.292-7.16c-0.992,0.724-1.985,1.448-2.977,2.172
					c-0.006-1.452,0.105-2.949,0.1-4.401c-10.233,1.872-20.189,5.244-29.454,9.974c0.466-2.094,1.709-4.006,3.433-5.283
					c-10.601,3.302-20.751,8.052-30.078,14.076c0.34-1.92,0.681-3.839,1.021-5.759c-7.393,11.029-18.665,19.401-31.359,23.292
					c-2.88,0.883-5.914,1.546-8.892,1.094s-5.906-2.215-7.038-5.006c0.947,1.888,1.253,4.09,0.857,6.164
					c-10.91-7.339-19.26-18.406-23.322-30.911c-0.765,2.243-1.53,4.487-2.294,6.73c-4.022-10.484-5.808-21.821-5.204-33.034
					c-1.282,0.936-2.563,1.871-3.844,2.806c-1.217-9.38,0.283-19.097,4.274-27.673c-9.362-4.189-21.392-3.991-32.188-1.263
					c-0.331,1.282-0.512,2.732-0.179,3.997c0.823,3.128,20.177,10.961,20.177,10.961s-5.172,3.036-7.196,7.421
					c0,0,3.823,0.112,4.835-0.787c0,0-2.699,8.096-2.811,12.144l3.598-2.811c0,0,0.225,7.084,0.562,11.02l1.574-1.885
					c0,0,0.394,15.156,3.005,21.454l1.137-3.994c0,0,2.132,8.493,5.315,12.225l0.658-2.414c0,0,1.536,3.073,5.597,5.487
					c0,0,5.597,7.353,10.975,9.658l-0.658-2.853c0,0,3.082,4.39,5.876,5.926c0,0,6.087,7.573,10.038,9.109l-0.659-2.963
					c0,0,4.939,5.707,12.511,7.353l-1.756-3.073c0,0,23.929,4.123,45.63-6.727c21.409-10.705,37.293-22.701,51.02-23.341
					c-0.205-5.202-2.018-10.526-0.38-15.453C290.496,270.663,289.431,271.905,288.367,273.147z"/>
			</g>
			<path style="fill:#FFFFFF;" d="M188.027,281.743c-0.409,0.74-0.819,1.48-1.228,2.22c-1.686-7.299-1.898-14.882-0.109-22.156
				c0.515-2.093,1.03-4.186,1.545-6.279c1.835,0.792,3.67,1.584,5.506,2.376c-0.604-3.88-2.049-7.627-4.207-10.908
				c2.866-0.059,5.744,0.855,8.051,2.557c-2.467-6.648-6.819-12.584-12.417-16.937c0.935-0.455,1.87-0.911,2.804-1.366
				c-2.753-2.547-4.869-5.187-7.622-7.733c-0.997-4.564-1.3-9.278-0.895-13.932c2.34,1.174,4.869,1.968,7.46,2.342
				c-2.833-5.318-4.404-11.303-4.547-17.326c1.846,1.427,3.861,1.649,6.107,2.283c-1.87-4.337-2.908-9.031-3.042-13.752
				c2.177,1.339,4.442,2.533,6.776,3.574c-3.119-4.385-5.139-9.544-5.826-14.881c1.069,0.327,2.408,0.428,3.478,0.756
				c-4.206-4.611-8.111-9.497-11.68-14.617c0.792-0.02,1.584-0.039,2.376-0.059c-1.67-2.248-3.721-4.213-6.038-5.785
				c-0.97-0.658-2.04-1.307-2.533-2.37c-0.493-1.063-0.005-2.653,1.162-2.772c-1.902,0.06-3.805,0.12-5.707,0.18
				c-0.069-0.925-0.138-1.851-0.207-2.776c-4.627,5.015-6.843,12.16-5.867,18.913c0.085,0.589-0.003,0.591-0.287,1.114
				c-0.284,0.523-0.978,0.873-1.494,0.575c-0.355-0.206-0.509-0.633-0.614-1.03c-0.719-2.725-0.406-5.618,0.188-8.374
				c0.593-2.755,1.505-5.333,1.901-8.124c-0.614-0.954-1.468-1.754-2.46-2.305c0.38,0.538,0.571,1.207,0.53,1.865
				c-1.017-0.393-2.08-0.666-3.16-0.813c0.761,0.147,1.431,0.702,1.717,1.423c-1.531,0.021-3.059,0.304-4.496,0.831
				c0.567-0.057,1.156,0.185,1.518,0.624c-2.504,1.155-4.846,2.664-6.933,4.466c0.63-0.019,1.265,0.173,1.779,0.539
				c-1.684,1.749-3.247,3.614-4.674,5.577c0.699-0.372,1.527-0.495,2.304-0.342c-0.714,1.343-1.388,2.605-1.888,4.041
				c-2.754,7.909-2.44,16.502-3.362,24.826c-1.508,13.62-6.638,27.127-16.118,37.021c-0.132,0.138-0.269,0.273-0.404,0.41
				c5.599,3.576,17.276,8.303,17.276,8.303s-5.172,3.036-7.196,7.421c0,0,3.823,0.112,4.835-0.787c0,0-2.699,8.096-2.811,12.144
				l3.598-2.811c0,0,0.225,7.084,0.562,11.02l1.574-1.885c0,0,0.394,15.156,3.005,21.454l1.137-3.994c0,0,2.132,8.493,5.315,12.225
				l0.658-2.414c0,0,1.536,3.073,5.597,5.487c0,0,5.597,7.353,10.975,9.658l-0.658-2.853c0,0,3.082,4.39,5.876,5.926
				c0,0,6.087,7.573,10.038,9.109l-0.659-2.963c0,0,4.939,5.707,12.511,7.353l-1.756-3.073c0,0,0.896,0.153,2.487,0.323
				C193.259,304.511,189.963,293.245,188.027,281.743z"/>
			<g>
				<path style="fill:#B5EDF7;" d="M197.047,318.014l-1.756-3.073c0,0,0.025,0.004,0.045,0.007c0.02,0.003,0.053,0.009,0.086,0.014
					c0.015,0.002,0.034,0.005,0.052,0.008c0.05,0.008,0.108,0.017,0.177,0.027c0.007,0.001,0.016,0.002,0.023,0.003
					c0.235,0.035,0.577,0.083,1.014,0.137c0.015,0.002,0.029,0.004,0.044,0.005c0.135,0.017,0.281,0.034,0.434,0.052
					c0.042,0.005,0.087,0.01,0.13,0.015c0.154,0.017,0.311,0.035,0.481,0.053c0,0,0.001,0,0.001,0
					c-1.923-4.576-3.61-9.249-5.08-13.989c-0.416-0.022-0.832-0.059-1.247-0.122c-2.978-0.452-5.906-2.215-7.038-5.006
					c0.947,1.888,1.253,4.09,0.857,6.164c-10.91-7.339-19.26-18.406-23.322-30.911c-0.765,2.243-1.53,4.487-2.294,6.73
					c-4.022-10.484-5.808-21.821-5.204-33.034c-1.282,0.936-2.563,1.871-3.844,2.806c-1.217-9.38,0.283-19.097,4.274-27.673
					c-6.724-3.009-14.823-3.745-22.854-2.916c-1.815,2.816-3.879,5.467-6.208,7.898c-0.132,0.138-0.269,0.273-0.404,0.41
					c0.01,0.006,0.021,0.013,0.031,0.019c0.293,0.186,0.604,0.376,0.927,0.568c0.072,0.043,0.144,0.086,0.218,0.129
					c0.144,0.084,0.291,0.169,0.439,0.254c0.078,0.045,0.158,0.09,0.237,0.135c0.157,0.089,0.314,0.177,0.475,0.266
					c0.046,0.025,0.092,0.05,0.138,0.075c0.378,0.208,0.767,0.416,1.165,0.625c0.016,0.009,0.032,0.017,0.049,0.026
					c0.186,0.097,0.374,0.195,0.563,0.292c0.067,0.034,0.133,0.069,0.201,0.103c0.19,0.097,0.38,0.194,0.572,0.291
					c0.052,0.026,0.104,0.052,0.156,0.078c0.642,0.322,1.295,0.641,1.948,0.954c0.041,0.02,0.081,0.039,0.122,0.058
					c0.204,0.097,0.408,0.194,0.611,0.29c0.057,0.027,0.113,0.053,0.17,0.08c0.206,0.097,0.413,0.194,0.618,0.29
					c0.005,0.002,0.009,0.004,0.014,0.006c0.677,0.315,1.344,0.62,1.991,0.911c0.054,0.024,0.109,0.049,0.162,0.073
					c0.19,0.086,0.379,0.17,0.565,0.253c0.041,0.018,0.081,0.036,0.122,0.054c0.582,0.259,1.138,0.504,1.663,0.732
					c0.06,0.026,0.121,0.053,0.18,0.078c0.149,0.065,0.295,0.128,0.438,0.189c0.066,0.028,0.13,0.056,0.194,0.084
					c0.139,0.06,0.276,0.119,0.408,0.175c0.048,0.02,0.092,0.039,0.139,0.059c0.239,0.102,0.464,0.198,0.677,0.288
					c0.068,0.029,0.138,0.058,0.203,0.086c0.095,0.04,0.185,0.078,0.274,0.115c0.069,0.029,0.137,0.058,0.202,0.085
					c0.084,0.035,0.166,0.069,0.243,0.102c0.051,0.021,0.098,0.041,0.146,0.061c0.276,0.115,0.503,0.208,0.67,0.277
					c0.027,0.011,0.057,0.023,0.08,0.033c0.035,0.014,0.066,0.027,0.095,0.039c0.025,0.01,0.048,0.02,0.068,0.028
					c0.062,0.025,0.102,0.041,0.102,0.041s-5.172,3.036-7.196,7.421c0,0,3.823,0.112,4.835-0.787c0,0-2.699,8.096-2.811,12.144
					l3.598-2.811c0,0,0.225,7.084,0.562,11.02l1.574-1.885c0,0,0.394,15.156,3.005,21.454l1.137-3.994c0,0,2.132,8.493,5.315,12.225
					l0.658-2.414c0,0,1.536,3.073,5.597,5.487c0,0,5.597,7.353,10.975,9.658l-0.658-2.853c0,0,3.082,4.39,5.876,5.926
					c0,0,6.087,7.573,10.038,9.109l-0.659-2.963C184.536,310.661,189.474,316.368,197.047,318.014z"/>
			</g>
			<path style="fill:#FFFFFF;" d="M243.837,306.729c0.348-0.18,0.698-0.359,1.043-0.539c0.194-0.101,0.385-0.203,0.578-0.304
				c0.455-0.239,0.911-0.477,1.361-0.716c0.104-0.055,0.205-0.11,0.309-0.165c0.535-0.285,1.068-0.57,1.596-0.854
				c0.088-0.048,0.175-0.095,0.263-0.143c0.54-0.292,1.079-0.584,1.612-0.875c0.073-0.04,0.144-0.079,0.217-0.119
				c0.547-0.299,1.091-0.598,1.63-0.896c0.038-0.021,0.074-0.041,0.112-0.062c7.204-3.982,13.736-7.809,19.768-10.84
				c0.028-0.014,0.057-0.029,0.085-0.043c0.468-0.235,0.932-0.463,1.394-0.688c0.041-0.02,0.082-0.041,0.122-0.06
				c0.429-0.208,0.855-0.41,1.28-0.609c0.074-0.034,0.148-0.071,0.222-0.105c0.412-0.192,0.82-0.377,1.228-0.56
				c0.082-0.037,0.166-0.076,0.248-0.113c0.387-0.172,0.77-0.337,1.153-0.501c0.102-0.044,0.205-0.09,0.307-0.133
				c0.373-0.158,0.743-0.307,1.113-0.456c0.108-0.043,0.216-0.089,0.324-0.132c0.36-0.142,0.717-0.277,1.073-0.411
				c0.115-0.043,0.232-0.09,0.347-0.132c0.35-0.129,0.698-0.249,1.045-0.369c0.118-0.041,0.238-0.085,0.356-0.125
				c0.339-0.114,0.675-0.22,1.012-0.325c0.125-0.039,0.25-0.081,0.374-0.119c0.329-0.1,0.655-0.19,0.981-0.281
				c0.129-0.036,0.259-0.075,0.387-0.109c0.319-0.085,0.636-0.161,0.952-0.237c0.133-0.032,0.268-0.068,0.401-0.098
				c0.307-0.07,0.612-0.13,0.916-0.191c0.141-0.028,0.283-0.06,0.423-0.086c0.299-0.056,0.595-0.102,0.892-0.148
				c0.143-0.022,0.288-0.049,0.431-0.069c0.29-0.041,0.577-0.072,0.865-0.104c0.148-0.016,0.298-0.037,0.446-0.051
				c0.282-0.027,0.561-0.043,0.841-0.06c0.133-0.008,0.267-0.022,0.399-0.029c-0.023-0.579-0.068-1.16-0.124-1.742
				c-0.733-3.225-2.377-6.461-1.164-9.467c-5.793,3.748-12.298,6.39-19.064,7.742c0.484-1.728,1.375-3.34,2.58-4.669
				c-5.474,0.878-10.65,3.523-14.569,7.443c0.203-2.198,1.011-4.337,2.312-6.12c-6.026,3.337-11.626,7.44-16.624,12.18
				c0.401-1.965,0.802-3.929,1.203-5.894c-5.171,3.633-9.782,8.063-13.62,13.084c0.228-1.721,0.455-3.441,0.683-5.162
				c-0.118,0.893-3.126,3.303-3.759,4.23c-1.109,1.625-1.964,3.377-2.636,5.222c-1.313,3.605,0.029,7.839,2.25,10.925
				c1.887-0.537,3.791-1.162,5.696-1.886c0.071-0.027,0.142-0.057,0.213-0.084c0.792-0.304,1.583-0.63,2.373-0.97
				c0.209-0.09,0.418-0.18,0.627-0.272c0.869-0.385,1.738-0.786,2.602-1.218c0.669-0.335,1.333-0.671,1.992-1.008
				C243.223,307.048,243.529,306.888,243.837,306.729z"/>
			<path style="fill:#FFFFFF;" d="M349.794,349.797c-0.559-0.874-1.147-1.729-1.796-2.545c-0.18,2.294-0.914,4.543-2.121,6.503
				c-0.274-1.646-0.548-3.293-0.822-4.939c-0.663,1.207-1.325,2.415-1.988,3.622c0.355-3.183-0.554-6.49-2.486-9.045
				c0.243,3.547-1.142,7.173-3.687,9.656c0.071-2.445-0.319-4.902-1.142-7.205c-1.5,1.759-3,3.517-4.499,5.275
				c-0.187-1.55-0.373-3.1-0.56-4.649c-4.067,9.976-10.016,26.07-13.297,30.378c-3.91,5.132,6.843,8.798,12.22,8.432
				c5.377-0.367,9.042-6.354,9.042-6.354S344.739,362.461,349.794,349.797z"/>
			<path style="fill:none;stroke:#5E2B2A;stroke-linecap:round;stroke-miterlimit:10;" d="M295.453,237.41
				c-4.534,2.76-7.985,7.247-9.489,12.337c1.148-0.953,2.296-1.907,3.444-2.86c-2.309,3.697-3.674,7.979-3.931,12.33
				c1.082-1.224,2.165-2.447,3.247-3.671c-1.667,4.189-2.378,8.755-2.063,13.253c1.088-1.193,2.176-2.387,3.263-3.58
				c-1.596,2.479-2.148,5.607-1.496,8.483c1.033-1.337,2.066-2.673,3.099-4.01c-0.963,5.689-0.005,10.169,0.579,15.962"/>
			<g>
				<path style="fill:#FFFFFF;" d="M338.305,396.612c-3.497,0-7.785-1.49-9.214-4.338c-2.133-4.25-1.94-16.274-1.932-16.784
					l0.007-0.365l0.24-0.274c0.173-0.197,4.278-4.832,8.813-4.832c1.042,0,2.032,0.244,2.943,0.727
					c5.419,2.873,7.956,17.781,5.764,22.591C343.977,395.418,341.563,396.612,338.305,396.612z"/>
				<path style="fill:#5E2B2A;" d="M336.219,371.018c0.827,0,1.661,0.18,2.475,0.611c4.879,2.587,7.319,16.914,5.323,21.292
					c-0.855,1.875-3.177,2.692-5.713,2.692c-3.384,0-7.15-1.454-8.32-3.786c-2.047-4.079-1.825-16.317-1.825-16.317
					S332.086,371.018,336.219,371.018 M336.22,369.018L336.22,369.018c-4.9,0-9.103,4.645-9.566,5.174l-0.481,0.55l-0.013,0.73
					c-0.024,1.303-0.167,12.858,2.038,17.251c1.686,3.359,6.421,4.889,10.108,4.889c3.668,0,6.413-1.408,7.532-3.862
					c2.374-5.206-0.293-20.754-6.206-23.889C338.575,369.302,337.427,369.018,336.22,369.018L336.22,369.018z"/>
			</g>
			<g>
				<path style="fill:#FFFFFF;" d="M311.888,395.669c-3.525-0.001-6.42-2.094-8.149-5.895c-1.428-3.138-1.134-6.837,0.849-10.698
					c2.455-4.779,6.925-8.547,9.559-9.066c0.442-0.087,0.895-0.131,1.344-0.131c3.873,0,6.565,3.227,6.679,3.363l0.21,0.257
					l0.016,0.332c0.07,1.51,0.586,14.856-2.825,18.446C318.012,393.917,315.177,395.669,311.888,395.669L311.888,395.669z"/>
				<path style="fill:#5E2B2A;" d="M315.489,370.879c3.445,0,5.905,2.998,5.905,2.998s0.665,14.327-2.551,17.713
					c-1.605,1.689-4.259,3.079-6.956,3.079c-2.708,0-5.46-1.401-7.238-5.308c-3.549-7.798,5.656-17.573,9.69-18.369
					C314.733,370.914,315.116,370.879,315.489,370.879 M315.489,368.879c-0.514,0-1.031,0.051-1.537,0.15
					c-3.269,0.645-7.87,4.948-10.255,9.591c-2.128,4.142-2.428,8.143-0.869,11.569c2.566,5.638,6.777,6.479,9.059,6.479
					c3.016,0,6.237-1.418,8.406-3.702c3.62-3.811,3.216-16.648,3.098-19.183l-0.031-0.663l-0.421-0.513
					C322.815,372.456,319.83,368.879,315.489,368.879L315.489,368.879z"/>
			</g>
			<g>
				<path style="fill:#FFFFFF;" d="M323.805,397.163c-3.42-0.101-6.335-1.631-8.208-4.309c-2.342-3.347-2.707-7.973-1.029-13.025
					c2.692-8.106,7.439-8.981,9.356-8.981c0.321,0,0.555,0.025,0.675,0.043c1.796,0.088,3.358,0.863,4.646,2.304
					c3.872,4.335,4.065,13.548,3.904,15.777c-0.38,5.287-3.531,8.198-8.874,8.198C324.274,397.17,323.964,397.167,323.805,397.163z"
					/>
				<path style="fill:#5E2B2A;" d="M323.924,371.847c0.364,0,0.575,0.039,0.575,0.039c7.319,0.299,7.874,13.929,7.652,17.014
					c-0.217,3.016-1.494,7.27-7.878,7.27c-0.144,0-0.29-0.002-0.44-0.007c-6.765-0.199-11.422-6.666-8.317-16.019
					C318.033,372.566,322.37,371.847,323.924,371.847 M323.924,369.847c-2.134,0-7.409,0.942-10.305,9.667
					c-1.78,5.36-1.368,10.301,1.159,13.913c2.029,2.901,5.309,4.626,8.998,4.735c0.169,0.005,0.335,0.007,0.498,0.007
					c5.943,0,9.449-3.241,9.873-9.126c0.008-0.11,0.577-11.217-4.157-16.516c-1.441-1.613-3.271-2.522-5.298-2.634
					C324.526,369.872,324.262,369.847,323.924,369.847L323.924,369.847z"/>
			</g>
			<g>
				<path style="fill:#77C9D9;" d="M359.797,323.203c0,0-3.055-5.499-5.132-6.843l1.711-0.733c0,0-6.11-5.377-6.11-9.653
					c0-2.016,1.184-9.751,1.78-19.475c-1.442,4.794-3.358,9.445-5.734,13.85c-1.689-2.18-3.378-4.361-5.067-6.541
					c-1.064,4.599-2.129,9.198-3.193,13.797c-3.05-3.004-6.573-5.526-10.398-7.447c-0.273,2.474-0.546,4.947-0.819,7.421
					c-3.975-2.555-7.582-5.683-10.674-9.257c0.185,2.238-0.196,4.521-1.097,6.579c-4.34-4.156-8.178-8.834-11.406-13.902
					c-0.482,2.674-1.573,5.236-3.167,7.436c-3.479-4.233-6.168-9.106-7.937-14.292c-0.026,0.235-0.051,0.469-0.077,0.704
					c0.008,0,0.016-0.001,0.024-0.001c0,0,2.003,12.52,5.008,17.193l1.168-3.839c0,0,1.732,8.019,6.498,12.296v-3.299
					c0,0,4.277,5.621,9.409,8.554l-0.733-2.933c0,0,15.519,11.12,19.552,13.808c1.849,1.233,2.66,2.729,2.642,4.781
					c1.428,0.023,2.856,0.022,4.284-0.03c-1.892-1.731-3.184-4.106-3.609-6.635c2.75,2.718,6.44,4.465,10.285,4.868
					c-1.695-1.401-2.599-3.701-2.311-5.881c3.331,1.725,6.663,3.449,9.994,5.174c0.046-1.836,0.092-3.672,0.138-5.507
					c1.226,1.579,2.453,3.158,3.679,4.737c0.229-2.189,0.052-3.988-0.296-4.683L359.797,323.203z"/>
			</g>
		</g>
		<g>
			<path style="fill:#A5DCE7;stroke:#5E2B2A;stroke-width:2;stroke-linecap:round;stroke-miterlimit:10;" d="M174.634,150.558
				c0,0,1.214-9.627,5.825-16.423c4.611-6.796,8.252-14.077,9.384-17.717c1.133-3.641,3.317-2.935,4.288-1.306
				c0.971,1.63,15.464,34.424-8.062,48.915"/>
			<path style="fill:#D6929F;stroke:#5E2B2A;stroke-linecap:round;stroke-linejoin:round;stroke-miterlimit:10;" d="
				M179.207,151.852c0,0,0.341-8.948,4.431-16.106c4.09-7.158,7.755-13.464,8.266-15.509c0.511-2.045,1.79,2.386,2.13,6.221
				c0.341,3.835,0.937,24.713-6.306,31.189l0.597-4.687c0,0-2.037,1.306-2.893,2.272c0,0,1.503-4.147,1.602-6.192
				c0,0-2.543,1.378-3.736,3.501c0,0,1.619-4.353,1.278-5.802c0,0-2.216,2.13-2.727,4.431c0,0,0.256-3.409,0.085-4.261
				C181.934,146.909,179.803,149.977,179.207,151.852z"/>
		</g>
		<g>
			<path style="fill:#FFFFFF;stroke:#5E2B2A;stroke-width:2;stroke-linecap:round;stroke-miterlimit:10;" d="M193.774,373.357
				c0,0-1.959-2.927-5.671-2.082c-3.712,0.845-7.218,11.465-4.331,17.446c2.887,5.98,6.908,6.593,10.93,3.554
				C198.723,389.236,193.774,373.357,193.774,373.357z"/>
			<path style="fill:#A5DCE7;stroke:#5E2B2A;stroke-width:2;stroke-linecap:round;stroke-miterlimit:10;" d="M187.033,259.026
				c0,0-2.077,19.048-0.572,26.788l2.472-5.805c0,0,0.242,16.689,2.66,21.526v-4.858c0,0,4.6,15.458,6.532,18.623v-6.51
				c0,0,8.463,25.88,9.189,34.829c0.726,8.949-4.837,26.847-8.465,31.443c-3.628,4.595,16.447,15.389,16.447,15.389
				s5.563,3.716,9.675-1.12c4.112-4.836-1.209-14.269-1.209-14.269s7.014-31.926,5.079-48.131l2.902,1.209l-3.628-9.433l3.628,0.967
				l-4.4-6.471l2.949,0.909c0,0-2.419-4.837-3.386-7.014c-0.967-2.177-4.595-35.071-9.917-46.68"/>
			<path style="fill:#FFFFFF;" d="M224.537,340.887c-0.032,2.017-0.572,4.023-1.559,5.782c-0.261-3.987-1.73-7.887-4.164-11.055
				c0.432,5.088-0.255,10.268-1.999,15.067c-0.492-2.532-1.448-4.972-2.807-7.164c0.02,2.244-0.482,4.491-1.456,6.512
				c-0.533-3.919-2.288-7.663-4.959-10.579c-0.146,0.87-0.29,1.802-0.44,2.753c0.069,0.505,0.127,0.986,0.162,1.417
				c0.726,8.949-4.837,26.847-8.465,31.443c-3.628,4.595,16.447,15.389,16.447,15.389s5.563,3.716,9.675-1.12
				c4.112-4.836-1.209-14.269-1.209-14.269s3.105-14.143,4.613-28.381C227.418,344.548,226.158,342.57,224.537,340.887z"/>
			<path style="fill:none;stroke:#5E2B2A;stroke-width:2;stroke-linecap:round;stroke-miterlimit:10;" d="M187.033,259.026
				c0,0-2.077,19.048-0.572,26.788l2.472-5.805c0,0,0.242,16.689,2.66,21.526v-4.858c0,0,4.6,15.458,6.532,18.623v-6.51
				c0,0,8.463,25.88,9.189,34.829c0.726,8.949-4.837,26.847-8.465,31.443c-3.628,4.595,16.447,15.389,16.447,15.389
				s5.563,3.716,9.675-1.12c4.112-4.836-1.209-14.269-1.209-14.269s7.014-31.926,5.079-48.131l2.902,1.209l-3.628-9.433l3.628,0.967
				l-4.4-6.471l2.949,0.909c0,0-2.419-4.837-3.386-7.014c-0.967-2.177-4.595-35.071-9.917-46.68"/>
			<path style="fill:#FFFFFF;stroke:#5E2B2A;stroke-width:2;stroke-linecap:round;stroke-miterlimit:10;" d="M205.529,372.019
				c0,0-2.99-4.952-8.455-3.611c-5.465,1.34-9.383,14.522-6.187,20.923c3.197,6.401,11.342,6.919,13.92,2.484
				C207.385,387.38,205.529,372.019,205.529,372.019z"/>
			<path style="fill:#FFFFFF;stroke:#5E2B2A;stroke-width:2;stroke-linecap:round;stroke-miterlimit:10;" d="M216.665,380.575
				c0,0,3.197,12.156-4.434,13.451c-7.63,1.294-9.589-2.727-10.105-10.357c-0.516-7.63,1.031-13.92,5.053-15.57
				c4.021-1.65,10.151,3.531,10.151,3.531"/>
		</g>
		<g>
			<path style="fill:#FFFFFF;stroke:#5E2B2A;stroke-width:2;stroke-linecap:round;stroke-miterlimit:10;" d="M106.193,205.727
				c0.195,0.358,0.481,0.76,0.887,0.738c0.519-0.028,0.712-0.686,0.76-1.204c0.239-2.574,0.31-5.164,0.215-7.748
				c-1.1-0.53-2.204-1.052-3.312-1.565c-2.612-1.21-1.296,2.666-0.985,3.776C104.342,201.808,105.159,203.826,106.193,205.727z"/>
			<path style="fill:#FFFFFF;stroke:#5E2B2A;stroke-width:2;stroke-linecap:round;stroke-miterlimit:10;" d="M122.191,201.934
				c0.648,1.632,1.577,3.136,2.5,4.63c0.314,0.508,0.753,1.082,1.347,1.028c0.379-0.035,0.691-0.338,0.845-0.686
				c0.154-0.348,0.179-0.737,0.201-1.117c0.113-2.034,0.17-4.072,0.168-6.109c0-0.618-0.012-1.26-0.284-1.815
				c-0.432-0.878-1.403-1.329-2.303-1.714c-0.559-0.239-1.148-0.484-1.753-0.425C120.171,195.993,121.622,200.501,122.191,201.934z"
				/>
			<path style="fill:#AD282F;" d="M131.985,211.365c-2.132,2.471-4.542,4.763-6.076,7.643c-1.534,2.88-2.034,6.595-0.236,9.318
				c1.657,2.509,4.92,3.591,7.917,3.345c2.997-0.246,5.782-1.611,8.379-3.126c17.921-10.454,30.452-29.656,32.807-50.269
				c0.458-4.007-0.03-9.037-3.747-10.602c-2.082-0.876-4.468-0.278-6.609,0.442c-7.563,2.544-19.718,6.94-21.215,15.848
				C141.465,194.324,139.09,203.13,131.985,211.365z"/>
			<path style="fill:#7D1D22;" d="M171.029,167.674c-2.082-0.876-4.467-0.278-6.609,0.442c-1.84,0.619-3.951,1.348-6.115,2.224
				c-1.746,6.322-4.378,12.095-9.136,17.609c-2.132,2.471-4.542,4.763-6.076,7.643c-1.534,2.88-2.034,6.595-0.236,9.318
				c1.657,2.509,4.921,3.591,7.917,3.345c2.997-0.246,5.782-1.611,8.38-3.127c3.654-2.132,7.08-4.633,10.246-7.43
				c2.758-6.157,4.608-12.715,5.375-19.424C175.234,174.269,174.746,169.238,171.029,167.674z"/>
			<path style="fill:#FFFFFF;stroke:#5E2B2A;stroke-width:2;stroke-linecap:round;stroke-miterlimit:10;" d="M137.003,220.988
				c0.093-0.379,0.206-0.764,0.441-1.075c0.236-0.311,0.621-0.536,1.007-0.481c0.436,0.063,0.746,0.447,0.999,0.808
				c0.834,1.189,1.565,2.452,2.181,3.768c0.257,0.549,0.499,1.159,0.348,1.746c-0.141,0.55-0.601,0.96-1.081,1.264
				c-0.792,0.502-1.704,0.808-2.637,0.896c-0.308,0.029-1.081,0.155-1.339-0.051c-0.296-0.237-0.131-0.46-0.15-0.816
				C136.661,224.955,136.493,223.063,137.003,220.988z"/>
			<g>
				<path style="fill:#F9DE8D;" d="M144.435,177.057c-2.487,0-5.282-1.225-6.796-2.979c-0.918-1.063-1.311-2.254-1.135-3.444
					c0.838-5.68,3.468-8.938,7.217-8.938c0.092,0,0.185,0.002,0.278,0.006c4.984,0.214,5.767,6.479,5.797,6.746
					c0.029,0.224,0.699,5.79-2.609,7.902C146.453,176.819,145.527,177.057,144.435,177.057L144.435,177.057z"/>
				<path style="fill:#5E2B2A;" d="M143.721,162.696c0.078,0,0.156,0.002,0.236,0.005c4.189,0.18,4.847,5.862,4.847,5.862
					s0.658,5.149-2.154,6.944c-0.593,0.379-1.367,0.549-2.214,0.549c-3.171,0-7.367-2.396-6.942-5.277
					C138.022,167.198,139.702,162.696,143.721,162.696 M143.721,160.696c-4.234,0-7.301,3.661-8.206,9.792
					c-0.219,1.486,0.254,2.953,1.368,4.244c1.69,1.958,4.796,3.325,7.553,3.325c1.285,0,2.392-0.291,3.29-0.864
					c3.772-2.408,3.146-8.228,3.062-8.883c-0.314-2.717-2.093-7.407-6.745-7.607C143.934,160.698,143.827,160.696,143.721,160.696
					L143.721,160.696z"/>
			</g>
			<path style="fill:none;stroke:#5E2B2A;stroke-linecap:round;stroke-miterlimit:10;" d="M142.99,170.042
				c0,0-0.742-2.021,0.333-4.834"/>
			<path style="fill:none;stroke:#5E2B2A;stroke-linecap:round;stroke-miterlimit:10;" d="M140.002,166.703
				c0,0,3.019-2.756,5.663-0.785"/>
			<g>
				<path style="fill:#F9DE8D;" d="M133.198,238.331c-3.626-0.119-10.733-2.111-11.673-8.803c-1.089-7.757,2.857-12.28,8.321-18.541
					l0.74-0.85c5.182-5.954,7.412-11.992,7.792-13.097c-5.048,2.57-10.499,3.87-16.255,3.87c-7.046,0-12.182-1.966-13.302-2.433
					c-0.309,0.009-0.613,0.014-0.917,0.014c-16.262,0-23.843-12.8-25.514-24.779c-1.294-9.274,1.024-17.206,5.392-18.449
					c0.793-0.226,1.728-0.335,2.859-0.335c6.599,0,18.241,3.812,29.5,7.498c8.958,2.933,17.42,5.703,21.232,5.756l0.226,0.002
					c5.964-0.001,10.153-3.346,12.925-5.56c1.51-1.206,2.602-2.077,3.64-2.181c0.078-0.008,0.155-0.011,0.231-0.011
					c2.112,0,3.237,2.721,3.892,4.724c2.356-2.171,6.574-4.225,10.029-4.225c2.591,0,6.936,1.116,6.936,8.587
					c0,14.083-7.152,32.717-19.132,49.846c-12.813,18.322-26.29,18.951-26.858,18.969l-0.032,0.001L133.198,238.331z
					 M144.757,194.13c-0.523,7.98-13.125,24.387-16.064,27.05c-1.424,1.291-2.547,4.399-1.805,6.324
					c0.48,1.244,1.701,1.875,3.628,1.875c0.001,0,0.001,0,0.002,0c1.083-0.001,2.37-0.204,3.826-0.604
					c10.987-3.021,20.354-17.517,28.068-31.299c6.28-11.221,6.578-23.615,6.566-26.245c-0.342-0.166-0.767-0.25-1.267-0.25
					c-0.335,0-0.636,0.039-0.849,0.078c-1.414,2.044-9.225,12.869-22.031,21.953L144.757,194.13z"/>
				<path style="fill:#5E2B2A;" d="M90.64,155.928c11.839,0,42.024,13.133,50.719,13.254c0.081,0.001,0.159,0.002,0.239,0.002
					c9.276,0,14.332-7.512,16.665-7.745c0.044-0.005,0.088-0.007,0.132-0.007c2.217,0,3.294,5.66,3.493,5.66
					c0.004,0,0.008-0.002,0.011-0.007c1.508-2.205,6.38-5.154,10.417-5.154c3.236,0,5.936,1.896,5.936,7.587
					c0,12.792-6.278,31.151-18.951,49.273c-12.674,18.122-26.07,18.543-26.07,18.543s-9.644-0.315-10.716-7.942
					c-1.072-7.627,2.9-11.787,8.825-18.595c5.925-6.808,8.052-13.634,8.052-13.634l4.367-3.096
					c-0.484,7.395-12.638,23.565-15.738,26.375c-2.67,2.419-4.479,9.939,2.496,9.939c1.124,0,2.478-0.196,4.091-0.639
					c11.625-3.197,21.41-18.794,28.675-31.775c7.266-12.981,6.684-27.279,6.684-27.279c-0.678-0.557-1.537-0.704-2.258-0.704
					c-0.815,0-1.454,0.189-1.454,0.189s-9.05,13.811-25.159,24.157c-6.734,4.325-13.444,5.583-18.974,5.583
					c-7.7,0-13.113-2.44-13.113-2.44c-0.375,0.014-0.741,0.02-1.107,0.02c-27.608,0-28.896-38.69-19.848-41.266
					C88.77,156.021,89.639,155.928,90.64,155.928 M90.64,153.928C90.64,153.928,90.641,153.928,90.64,153.928
					c-1.225,0-2.249,0.122-3.132,0.374c-5.58,1.589-7.297,11.038-6.109,19.55c1.73,12.395,9.601,25.639,26.504,25.639
					c0.244,0,0.488-0.003,0.735-0.008c1.51,0.605,6.634,2.428,13.485,2.428c5.044,0,9.86-0.971,14.385-2.894
					c-1.104,2.475-3.216,6.489-6.677,10.465l-0.739,0.848c-5.638,6.461-9.711,11.129-8.558,19.339
					c1.033,7.351,8.714,9.535,12.631,9.663l0.064,0.002l0.064-0.002c0.588-0.018,14.549-0.668,27.646-19.396
					c12.093-17.291,19.312-36.139,19.312-50.419c0-8.652-5.55-9.587-7.936-9.587c-3.229,0-6.974,1.602-9.571,3.549
					c-0.802-1.986-2.094-4.048-4.35-4.048c-0.11,0-0.22,0.005-0.331,0.016c-1.332,0.133-2.52,1.082-4.165,2.395
					c-2.822,2.254-6.687,5.34-12.301,5.34l-0.211-0.001c-3.661-0.051-12.052-2.798-20.935-5.706
					C109.119,157.765,97.399,153.928,90.64,153.928L90.64,153.928L90.64,153.928z M167.433,171.992
					c0.087-0.007,0.18-0.011,0.277-0.011c0.073,0,0.164,0.003,0.262,0.012c-0.062,3.651-0.742,14.826-6.434,24.994
					c-7.168,12.806-16.766,27.883-27.46,30.824c-1.37,0.377-2.568,0.568-3.561,0.568c-2.22,0-2.579-0.93-2.696-1.236
					c-0.578-1.499,0.381-4.169,1.543-5.222c2.997-2.717,15.852-19.504,16.391-27.726l0.042-0.641
					C158.012,184.809,165.49,174.77,167.433,171.992L167.433,171.992z"/>
			</g>
			<g>
				<path style="fill:#EBB057;" d="M163.284,197.964c-7.266,12.981-17.05,28.578-28.675,31.775c-11.625,3.197-9.688-6.491-6.588-9.3
					c3.1-2.809,15.254-18.979,15.738-26.375l-4.367,3.096c0,0-2.127,6.826-8.052,13.634c-5.925,6.808-9.896,10.968-8.825,18.595
					c0.079,0.566,0.211,1.088,0.378,1.576c3.46,2.01,7.835,2.3,11.749,1.299c4.437-1.135,8.361-3.746,11.86-6.701
					c12.139-10.255,20.007-25.093,21.808-40.709C167.323,188.966,165.759,193.541,163.284,197.964z"/>
				<path style="fill:#EBB057;" d="M109.01,197.471c0,0,15.978,7.203,32.087-3.143c16.042-10.303,25.08-24.037,25.155-24.152
					c-11.839,3.724-23.173,9.048-35.132,12.371c-12.58,3.495-27.001,3.844-37.741-3.581c-1.981,2.058-4.643,3.318-7.448,3.751
					C89.559,191.008,96.825,197.916,109.01,197.471z"/>
				<path style="fill:#EBB057;" d="M168.148,170.001c-0.019-0.137-0.033-0.275-0.053-0.412c-0.59,0.176-1.173,0.376-1.761,0.56
					C166.55,170.094,167.294,169.925,168.148,170.001z"/>
			</g>
			<path style="fill:none;stroke:#5E2B2A;stroke-linecap:round;stroke-miterlimit:10;" d="M162.467,165.667
				c0,0-1.297,2.515-5.617,3.709"/>
			<path style="fill:none;stroke:#5E2B2A;stroke-linecap:round;stroke-miterlimit:10;" d="M160.959,172.452
				c0,0,7.506-6.266,11.899,0.229"/>
			<path style="fill:#5E2B2A;stroke:#5E2B2A;stroke-linecap:round;stroke-miterlimit:10;" d="M91.841,173.825
				c0,0-10.275-5.821-12.844-11.594c-2.569-5.772-2.672-8.855,9.967-9.163c12.639-0.308,20.345,4.521,16.749,8.426
				C102.117,165.399,92.874,174.441,91.841,173.825z"/>
			<path style="fill:none;stroke:#5E2B2A;stroke-linecap:round;stroke-miterlimit:10;" d="M91.841,173.825
				c0,0,5.053,18.845,17.169,24.279"/>
			<path style="fill:#5E2B2A;stroke:#5E2B2A;stroke-linecap:round;stroke-miterlimit:10;" d="M165.826,156.382l2.021,2.635
				c-0.98,2.197-2.396,3.472-3.527,3.179c-1.478-0.383-2.014-3.323-1.188-6.512c0.827-3.19,2.723-5.499,4.201-5.116
				c1.135,0.294,1.752,2.105,1.538,4.509L165.826,156.382z"/>
			<path style="fill:#5E2B2A;stroke:#5E2B2A;stroke-linecap:round;stroke-miterlimit:10;" d="M155.012,155.928l2.02,2.635
				c-0.98,2.197-2.395,3.472-3.527,3.179c-1.478-0.383-2.014-3.323-1.188-6.512c0.827-3.19,2.723-5.499,4.201-5.116
				c1.135,0.294,1.752,2.105,1.538,4.509L155.012,155.928z"/>
			<path style="fill:#FFFFFF;stroke:#5E2B2A;stroke-width:2;stroke-linecap:round;stroke-miterlimit:10;" d="M127.736,218.859
				c0.115-0.412,0.287-0.873,0.687-1.027c0.359-0.138,0.779,0.044,1.03,0.336c0.251,0.292,0.368,0.673,0.472,1.044
				c0.578,2.059,0.932,4.181,1.056,6.317c0.034,0.584,0.039,1.212-0.286,1.699c-1.019,1.529-3.596,0.508-3.721-1.115
				C126.788,223.695,127.088,221.189,127.736,218.859z"/>
			<path style="fill:#FFFFFF;" d="M98.624,156.634c0.922,0.188,2.016,0.534,2.236,1.449c0.22,0.917-0.613,1.734-1.414,2.232
				c-1.809,1.123-3.973,1.775-6.082,1.482c-2.109-0.293-4.122-1.632-4.913-3.609c-1.075-2.686,1.142-2.693,3.124-2.608
				C93.954,155.68,96.298,156.16,98.624,156.634z"/>
		</g>
	</g>
</g>
</svg>
